<svg width="25" height="25" viewBox="0 0 25 25" fill="none" xmlns="http://www.w3.org/2000/svg">
<g clip-path="url(#clip0_1_915)">
<path d="M6.77466 21.6001H6.02466V22.3501H6.77466V21.6001Z" fill="white"/>
<path d="M14.6497 17.1001H8.27466V11.4751C8.27466 11.3756 8.23515 11.2803 8.16482 11.2099C8.0945 11.1396 7.99911 11.1001 7.89966 11.1001H1.14966C1.0502 11.1001 0.954819 11.1396 0.884493 11.2099C0.814167 11.2803 0.774658 11.3756 0.774658 11.4751V23.4751C0.774658 23.5746 0.814167 23.6699 0.884493 23.7403C0.954819 23.8106 1.0502 23.8501 1.14966 23.8501H14.6497C14.7491 23.8501 14.8445 23.8106 14.9148 23.7403C14.9851 23.6699 15.0247 23.5746 15.0247 23.4751V17.4751C15.0247 17.3756 14.9851 17.2803 14.9148 17.2099C14.8445 17.1396 14.7491 17.1001 14.6497 17.1001ZM10.5247 17.8501H12.0247V19.3501H10.5247V17.8501ZM3.77466 11.8501H5.27466V13.3501H3.77466V11.8501ZM1.52466 11.8501H3.02466V13.7251C3.02466 13.8246 3.06417 13.9199 3.13449 13.9903C3.20482 14.0606 3.3002 14.1001 3.39966 14.1001H5.64966C5.74911 14.1001 5.8445 14.0606 5.91482 13.9903C5.98515 13.9199 6.02466 13.8246 6.02466 13.7251V11.8501H7.52466V17.1001H1.52466V11.8501ZM3.77466 17.8501H5.27466V19.3501H3.77466V17.8501ZM1.52466 17.8501H3.02466V19.7251C3.02466 19.8246 3.06417 19.9199 3.13449 19.9903C3.20482 20.0606 3.3002 20.1001 3.39966 20.1001H5.64966C5.74911 20.1001 5.8445 20.0606 5.91482 19.9903C5.98515 19.9199 6.02466 19.8246 6.02466 19.7251V17.8501H7.52466V23.1001H1.52466V17.8501ZM14.2747 23.1001H8.27466V17.8501H9.77466V19.7251C9.77466 19.8246 9.81417 19.9199 9.88449 19.9903C9.95482 20.0606 10.0502 20.1001 10.1497 20.1001H12.3997C12.4991 20.1001 12.5945 20.0606 12.6648 19.9903C12.7351 19.9199 12.7747 19.8246 12.7747 19.7251V17.8501H14.2747V23.1001Z" fill="white"/>
<path d="M13.5247 21.6001H12.7747V22.3501H13.5247V21.6001Z" fill="white"/>
<path d="M6.77466 15.6001H6.02466V16.3501H6.77466V15.6001Z" fill="white"/>
<path d="M22.8117 5.83961C22.8405 5.8466 22.8701 5.85013 22.8997 5.85011C22.9654 5.85006 23.03 5.83279 23.0869 5.80002C23.1439 5.76726 23.1913 5.72014 23.2244 5.66336C23.2584 5.60341 23.2758 5.53543 23.2747 5.46649V3.97511C23.2747 3.89096 23.2464 3.80926 23.1943 3.74315C23.1423 3.67704 23.0695 3.63035 22.9877 3.61061L12.1127 0.98561C12.0549 0.971594 11.9945 0.971594 11.9367 0.98561L1.06173 3.61061C0.979926 3.63035 0.907144 3.67704 0.855086 3.74315C0.803027 3.80926 0.774717 3.89096 0.77471 3.97511V5.46447C0.773429 5.54299 0.795876 5.62007 0.839116 5.68563C0.882026 5.74873 0.943137 5.79726 1.01431 5.82477C1.08549 5.85228 1.16336 5.85746 1.23755 5.83961L1.89971 5.67981V10.3501H2.64971V5.49878L12.0247 3.23584L21.3997 5.49878V23.1001H19.1497V8.47511C19.1497 8.37565 19.1102 8.28027 19.0399 8.20994C18.9695 8.13962 18.8742 8.10011 18.7747 8.10011H5.27471C5.17525 8.10011 5.07987 8.13962 5.00955 8.20994C4.93922 8.28027 4.89971 8.37565 4.89971 8.47511V9.97511C4.89971 10.0746 4.93922 10.1699 5.00955 10.2403C5.07987 10.3106 5.17525 10.3501 5.27471 10.3501H18.3997V11.1001H9.02471V11.8501H18.3997V12.6001H9.02471V13.3501H18.3997V14.1001H9.02471V14.8501H18.3997V23.1001H15.7747V23.8501H23.2747V23.1001H22.1497V5.67981L22.8117 5.83961ZM5.64971 9.60011V8.85011H18.3997V9.60011H5.64971ZM12.0247 2.47511C11.9951 2.4751 11.9655 2.47862 11.9367 2.48561L1.52471 4.99881V4.27042L12.0247 1.73589L22.5247 4.27042V4.99886L12.1127 2.48561C12.0839 2.47862 12.0544 2.4751 12.0247 2.47511Z" fill="white"/>
<path d="M12.7747 6.9751C13.073 6.9751 13.3592 6.85657 13.5702 6.64559C13.7811 6.43461 13.8997 6.14847 13.8997 5.8501C13.8997 5.55173 13.7811 5.26558 13.5702 5.0546C13.3592 4.84362 13.073 4.7251 12.7747 4.7251H11.2747C10.9763 4.7251 10.6901 4.84362 10.4792 5.0546C10.2682 5.26558 10.1497 5.55173 10.1497 5.8501C10.1497 6.14847 10.2682 6.43461 10.4792 6.64559C10.6901 6.85657 10.9763 6.9751 11.2747 6.9751H12.7747ZM10.8997 5.8501C10.8998 5.75068 10.9393 5.65536 11.0096 5.58506C11.0799 5.51475 11.1752 5.47521 11.2747 5.4751H12.7747C12.8741 5.4751 12.9695 5.51461 13.0398 5.58493C13.1101 5.65526 13.1497 5.75064 13.1497 5.8501C13.1497 5.94955 13.1101 6.04494 13.0398 6.11526C12.9695 6.18559 12.8741 6.2251 12.7747 6.2251H11.2747C11.1752 6.22499 11.0799 6.18544 11.0096 6.11514C10.9393 6.04484 10.8998 5.94952 10.8997 5.8501Z" fill="white"/>
</g>
<defs>
<clipPath id="clip0_1_915">
<rect width="24" height="24" fill="white" transform="translate(0.399658 0.600098)"/>
</clipPath>
</defs>
</svg>
