<svg width="25" height="25" viewBox="0 0 25 25" fill="none" xmlns="http://www.w3.org/2000/svg">
<g clip-path="url(#clip0_1_1131)">
<path d="M21.8977 15.2595L20.4915 13.1501H18.4797V5.05047L13.85 0.400146H1.60474V24.4001H24.1282V15.2595H21.8977ZM14.261 2.8061L16.0845 4.63765H14.261V2.8061ZM3.01099 22.9939V1.8064H12.8547V6.0439H17.0735V13.1501H15.0617L13.6555 15.2595H11.425V22.9939H3.01099ZM22.7219 22.9939H12.8313V16.6658H14.408L15.8143 14.5564H19.7389L21.1451 16.6658H22.7219V22.9939Z" fill="white"/>
<path d="M17.7766 16.3845C16.355 16.3845 15.1985 17.5411 15.1985 18.9626C15.1985 20.3842 16.355 21.5408 17.7766 21.5408C19.1982 21.5408 20.3547 20.3842 20.3547 18.9626C20.3547 17.5411 19.1982 16.3845 17.7766 16.3845ZM17.7766 20.1345C17.1304 20.1345 16.6047 19.6088 16.6047 18.9626C16.6047 18.3165 17.1304 17.7908 17.7766 17.7908C18.4228 17.7908 18.9485 18.3165 18.9485 18.9626C18.9485 19.6088 18.4228 20.1345 17.7766 20.1345Z" fill="white"/>
<path d="M15.6442 7.48145H4.44031V11.7002H15.6442V7.48145ZM14.2379 10.2939H5.84656V8.8877H14.2379V10.2939Z" fill="white"/>
</g>
<defs>
<clipPath id="clip0_1_1131">
<rect width="24" height="24" fill="white" transform="translate(0.866455 0.400146)"/>
</clipPath>
</defs>
</svg>
