<svg width="25" height="25" viewBox="0 0 25 25" fill="none" xmlns="http://www.w3.org/2000/svg">
<g clip-path="url(#clip0_1_1103)">
<path d="M8.47183 0.600098L3.97388 5.09805V24.6001H21.7591V0.600098H8.47183ZM8.05994 3.00072V4.68616H6.3745L8.05994 3.00072ZM20.3528 23.1938H5.38013V6.09242H9.4662V2.00635H20.3528V23.1938Z" fill="white"/>
<path d="M9.46619 6.09253H16.2667V7.49879H9.46619V6.09253Z" fill="white"/>
<path d="M7.04504 17.3433H11.5016V18.7495H7.04504V17.3433Z" fill="white"/>
<path d="M7.04504 8.90515H18.688V10.3114H7.04504V8.90515Z" fill="white"/>
<path d="M7.04504 11.7179H18.688V13.1242H7.04504V11.7179Z" fill="white"/>
<path d="M7.04504 14.5305H18.688V15.9368H7.04504V14.5305Z" fill="white"/>
<path d="M16.4847 17.3811C15.2699 17.3811 14.2816 18.3694 14.2816 19.5842C14.2816 20.7991 15.2699 21.7874 16.4847 21.7874C17.6996 21.7874 18.6879 20.7991 18.6879 19.5842C18.6879 18.3694 17.6996 17.3811 16.4847 17.3811ZM16.4847 20.3811C16.0453 20.3811 15.6879 20.0236 15.6879 19.5842C15.6879 19.1448 16.0453 18.7874 16.4847 18.7874C16.9242 18.7874 17.2816 19.1448 17.2816 19.5842C17.2816 20.0236 16.9242 20.3811 16.4847 20.3811Z" fill="white"/>
</g>
<defs>
<clipPath id="clip0_1_1103">
<rect width="24" height="24" fill="white" transform="translate(0.866455 0.600098)"/>
</clipPath>
</defs>
</svg>
