<svg width="25" height="25" viewBox="0 0 25 25" fill="none" xmlns="http://www.w3.org/2000/svg">
<g clip-path="url(#clip0_1_1152)">
<path d="M17.3732 17.64L18.0932 17.208C18.1892 17.16 18.2372 17.016 18.1892 16.872C18.1412 16.776 17.9972 16.728 17.8532 16.776L17.1332 17.256C17.0372 17.304 16.9892 17.448 17.0372 17.592C17.0852 17.688 17.2292 17.736 17.3732 17.64Z" fill="white"/>
<path d="M1.48519 14.5201C1.38919 14.5681 1.34119 14.6641 1.34119 14.7121C1.34119 14.7601 1.34119 19.1281 1.34119 18.8881C1.34119 18.9841 1.38919 19.0321 1.43719 19.0801C1.72519 19.2721 2.73319 19.8481 2.63719 19.8001C2.73319 19.8481 2.78119 19.8481 2.87719 19.8001C3.16519 19.6561 4.12519 19.0801 4.02919 19.1281C4.12519 19.0801 4.17319 18.9841 4.17319 18.8881V18.2641L8.82919 20.9521V23.1601C8.82919 23.2561 8.87719 23.3041 8.92519 23.3521C9.16519 23.4961 10.1732 24.0721 10.0772 24.0241C10.1732 24.0721 10.2212 24.0721 10.3172 24.0241C10.6052 23.8801 11.5652 23.3041 11.4692 23.3521C11.5652 23.3041 11.5652 23.2081 11.5652 23.1601V20.9521L16.3172 18.1681C16.4132 18.1201 16.4612 17.9761 16.4132 17.8321C16.3652 17.7361 16.2212 17.6881 16.0772 17.7361L10.3652 21.0481C10.3652 21.0001 10.3652 19.7521 10.3652 19.8001L22.7012 12.6481V13.8481C22.6532 13.8961 18.4292 16.3441 18.5252 16.2961C18.4292 16.3441 18.3812 16.4881 18.4292 16.6321C18.4772 16.7281 18.6212 16.7761 18.7652 16.7281L20.3972 15.7681V16.3921C20.3972 16.4881 20.4452 16.5361 20.4932 16.5841C20.5412 16.6321 21.6932 17.3041 21.6452 17.2561C21.7412 17.3041 21.7892 17.3041 21.8852 17.2561L23.0372 16.5841C23.1332 16.5361 23.1332 16.4401 23.1812 16.3921C23.1812 16.3441 23.1812 12.0241 23.1812 12.2161C23.1812 12.1201 23.1332 12.0721 23.0372 12.0241L19.4372 9.96007V7.22407C19.4372 7.12807 19.3892 7.03207 19.3412 7.03207C19.2932 6.98407 16.4612 5.35207 16.5092 5.35207V3.76807C16.5092 3.67207 16.4612 3.57607 16.4132 3.57607C16.4612 3.62407 13.3892 1.80007 12.1412 1.08007C12.0452 1.03207 11.9972 1.03207 11.9012 1.08007L7.10119 3.91207C7.00519 3.96007 6.95719 4.05607 6.95719 4.10407V9.14407L5.18119 10.2001C5.08519 10.2481 5.03719 10.3441 5.03719 10.3921V12.4081L1.48519 14.5201ZM9.98119 19.8961C9.98119 19.9441 9.98119 21.1921 9.98119 21.1441C-1.20281 14.6641 2.63719 16.9201 1.82119 16.4401V15.1921C12.5732 21.3841 9.11719 19.3681 9.98119 19.8961ZM1.82119 16.9681L2.49319 17.3521V19.1761L1.82119 18.7921V16.9681ZM3.69319 18.7921L3.02119 19.1761V17.6401C3.06919 17.6881 3.74119 18.0721 3.69319 18.0241V18.7921ZM9.30919 23.0641V21.2401L9.98119 21.6241V23.4481L9.30919 23.0641ZM11.1812 23.0641L10.5092 23.4481V21.6241L11.2292 21.2401L11.1812 23.0641ZM20.9732 16.3441V15.5761C21.0212 15.5281 21.6932 15.1441 21.6452 15.1921V16.7281L20.9732 16.3441ZM22.7972 16.3441L22.1252 16.7281V14.9041C22.1732 14.8561 22.8932 14.4721 22.8452 14.5201L22.7972 16.3441ZM19.1012 12.2641L14.6852 14.8081V10.2001L16.1252 9.38407V10.4881C16.1252 10.5841 16.1732 10.6321 16.2692 10.6801C16.3172 10.6801 16.3652 10.7281 16.3652 10.7281C16.4132 10.7281 16.4612 10.7281 16.5092 10.6801L17.6132 10.0561C17.7092 10.0081 17.7092 9.91207 17.7092 9.86407V8.52007L19.1012 7.70407V10.1521V12.2641ZM9.11719 3.28807L12.9092 5.49607L11.4692 6.31207C11.3732 6.26407 7.62919 4.05607 7.67719 4.10407L9.11719 3.28807ZM16.6052 9.09607L17.2292 8.76007V9.72007L16.6052 10.1041V9.09607ZM11.7092 11.9281L12.3332 11.5921V12.5521L11.7092 12.9361V11.9281ZM11.2292 12.1681V13.2721C11.2292 13.3681 11.2772 13.4161 11.3732 13.4641C11.4212 13.5121 11.5172 13.5121 11.6132 13.4641L12.7172 12.8401C12.8132 12.7921 12.8132 12.6961 12.8132 12.6481V11.3041L14.2052 10.4881V15.0961L9.83719 17.6401V13.0321L11.2292 12.1681ZM16.1252 8.80807C15.6932 9.04807 17.7572 7.84807 11.7092 11.3521C11.7092 11.2561 11.7092 6.50407 11.7092 6.74407C11.7572 6.69607 13.2452 5.88007 13.1492 5.92807V7.03207C13.1492 7.12807 13.1972 7.17607 13.2932 7.22407C13.3412 7.27207 13.4372 7.27207 13.5332 7.22407L14.6372 6.60007C14.7332 6.55207 14.7332 6.45607 14.7332 6.40807V5.01607L16.1252 4.20007C16.1252 4.24807 16.1252 9.04807 16.1252 8.80807ZM13.6292 5.64007L14.2532 5.30407V6.26407L13.6292 6.64807V5.64007ZM11.2292 11.3521L7.43719 9.14407V4.53607L11.2292 6.74407C11.2292 6.79207 11.2292 11.5441 11.2292 11.3521ZM13.3892 5.20807L9.59719 3.00007L10.2212 2.66407L14.0132 4.87207L13.3892 5.20807ZM7.24519 9.57607L11.0372 11.7841L9.59719 12.6001C9.54919 12.5521 5.56519 10.2481 5.80519 10.3921L7.24519 9.57607ZM5.56519 15.4321C5.56519 15.2401 5.56519 10.7281 5.56519 10.8241C5.61319 10.8721 9.59719 13.1761 9.35719 13.0321V17.6401C9.30919 17.5921 5.32519 15.2881 5.56519 15.4321ZM18.8612 7.22407C17.3252 8.13607 16.6052 8.52007 16.6052 8.52007V5.92807L18.8612 7.22407ZM12.0932 1.60807L15.8852 3.81607L14.4932 4.63207L10.7012 2.42407L12.0932 1.60807ZM5.08519 15.5761C5.08519 15.6721 5.13319 15.7201 5.18119 15.7681C5.22919 15.8161 9.74119 18.4081 9.45319 18.2641H9.50119H9.69319C10.1252 17.9761 17.0372 14.0401 19.4852 12.6001C19.5812 12.5521 19.6292 12.4561 19.6292 12.4081V10.5361L22.6532 12.2641L10.2212 19.4641C9.40519 18.9841 13.2452 21.1921 2.06119 14.7601L5.08519 13.0321V15.5761Z" fill="white"/>
</g>
<defs>
<clipPath id="clip0_1_1152">
<rect width="24" height="24" fill="white" transform="translate(0.333191 0.600098)"/>
</clipPath>
</defs>
</svg>
