<svg width="25" height="25" viewBox="0 0 25 25" fill="none" xmlns="http://www.w3.org/2000/svg">
<g clip-path="url(#clip0_1_942)">
<path d="M8.39971 17.4H7.59971C7.37881 17.4 7.19971 17.5791 7.19971 17.8C7.19971 18.0209 7.37881 18.2 7.59971 18.2H8.39971C8.62061 18.2 8.79971 18.0209 8.79971 17.8C8.79971 17.5791 8.62061 17.4 8.39971 17.4Z" fill="white"/>
<path d="M19.5996 17.4H9.99961C9.77871 17.4 9.59961 17.5791 9.59961 17.8C9.59961 18.0209 9.77871 18.2 9.99961 18.2H19.5996C19.8205 18.2 19.9996 18.0209 19.9996 17.8C19.9996 17.5791 19.8205 17.4 19.5996 17.4Z" fill="white"/>
<path d="M8.39971 15.0001H7.59971C7.37881 15.0001 7.19971 15.1792 7.19971 15.4001C7.19971 15.621 7.37881 15.8001 7.59971 15.8001H8.39971C8.62061 15.8001 8.79971 15.621 8.79971 15.4001C8.79971 15.1792 8.62061 15.0001 8.39971 15.0001Z" fill="white"/>
<path d="M19.5996 15.0001H9.99961C9.77871 15.0001 9.59961 15.1792 9.59961 15.4001C9.59961 15.621 9.77871 15.8001 9.99961 15.8001H19.5996C19.8205 15.8001 19.9996 15.621 19.9996 15.4001C19.9996 15.1792 19.8205 15.0001 19.5996 15.0001Z" fill="white"/>
<path d="M8.39971 12.6001H7.59971C7.37881 12.6001 7.19971 12.7792 7.19971 13.0001C7.19971 13.221 7.37881 13.4001 7.59971 13.4001H8.39971C8.62061 13.4001 8.79971 13.221 8.79971 13.0001C8.79971 12.7792 8.62061 12.6001 8.39971 12.6001Z" fill="white"/>
<path d="M19.5996 12.6001H9.99961C9.77871 12.6001 9.59961 12.7792 9.59961 13.0001C9.59961 13.221 9.77871 13.4001 9.99961 13.4001H19.5996C19.8205 13.4001 19.9996 13.221 19.9996 13.0001C19.9996 12.7792 19.8205 12.6001 19.5996 12.6001Z" fill="white"/>
<path d="M8.39971 10.2001H7.59971C7.37881 10.2001 7.19971 10.3792 7.19971 10.6001C7.19971 10.821 7.37881 11.0001 7.59971 11.0001H8.39971C8.62061 11.0001 8.79971 10.821 8.79971 10.6001C8.79971 10.3792 8.62061 10.2001 8.39971 10.2001Z" fill="white"/>
<path d="M19.5996 10.2001H9.99961C9.77871 10.2001 9.59961 10.3792 9.59961 10.6001C9.59961 10.821 9.77871 11.0001 9.99961 11.0001H19.5996C19.8205 11.0001 19.9996 10.821 19.9996 10.6001C19.9996 10.3792 19.8205 10.2001 19.5996 10.2001Z" fill="white"/>
<path d="M8.39971 7.80005H7.59971C7.37881 7.80005 7.19971 7.97915 7.19971 8.20005C7.19971 8.42095 7.37881 8.60005 7.59971 8.60005H8.39971C8.62061 8.60005 8.79971 8.42095 8.79971 8.20005C8.79971 7.97915 8.62061 7.80005 8.39971 7.80005Z" fill="white"/>
<path d="M19.5996 7.80005H9.99961C9.77871 7.80005 9.59961 7.97915 9.59961 8.20005C9.59961 8.42095 9.77871 8.60005 9.99961 8.60005H19.5996C19.8205 8.60005 19.9996 8.42095 19.9996 8.20005C19.9996 7.97915 19.8205 7.80005 19.5996 7.80005Z" fill="white"/>
<path d="M22.3945 6.17487C22.3925 6.13982 22.3856 6.10522 22.3741 6.07207C22.3697 6.05927 22.3665 6.04687 22.3609 6.03447C22.3414 5.99097 22.3143 5.95127 22.2809 5.91727L16.6809 0.317273C16.6469 0.283823 16.6072 0.256723 16.5637 0.237273C16.5513 0.231673 16.5389 0.228473 16.5265 0.224073C16.493 0.212573 16.4582 0.205573 16.4229 0.203273C16.4161 0.204473 16.4085 0.200073 16.3997 0.200073H5.19966C4.97876 0.200073 4.79966 0.379173 4.79966 0.600073V1.80007H2.79966C2.57876 1.80007 2.39966 1.97917 2.39966 2.20007V23.8001C2.39966 24.021 2.57876 24.2001 2.79966 24.2001H19.5997C19.8206 24.2001 19.9997 24.021 19.9997 23.8001V21.8001H21.9997C22.2206 21.8001 22.3997 21.621 22.3997 21.4001V6.20007C22.3997 6.19127 22.3953 6.18367 22.3945 6.17487ZM16.7997 1.56567L21.0341 5.80007H16.7997V1.56567ZM19.1997 23.4001H3.19966V2.60007H4.79966V21.4001C4.79966 21.621 4.97876 21.8001 5.19966 21.8001H19.1997V23.4001ZM21.5997 21.0001H5.59966V1.00007H15.9997V6.20007C15.9997 6.42097 16.1788 6.60007 16.3997 6.60007H21.5997V21.0001Z" fill="white"/>
<path d="M9.99971 3.80005H7.59971C7.37881 3.80005 7.19971 3.97915 7.19971 4.20005V6.60005C7.19971 6.82095 7.37881 7.00005 7.59971 7.00005H9.99971C10.2206 7.00005 10.3997 6.82095 10.3997 6.60005V4.20005C10.3997 3.97915 10.2206 3.80005 9.99971 3.80005ZM9.59971 6.20005H7.99971V4.60005H9.59971V6.20005Z" fill="white"/>
</g>
<defs>
<clipPath id="clip0_1_942">
<rect width="24" height="24" fill="white" transform="translate(0.399658 0.200073)"/>
</clipPath>
</defs>
</svg>
