<svg width="25" height="25" viewBox="0 0 25 25" fill="none" xmlns="http://www.w3.org/2000/svg">
<g clip-path="url(#clip0_1_1019)">
<path d="M9.33769 24.2H5.80894C5.60644 24.2 5.44519 24.0388 5.44519 23.8363V21.9088C5.44519 21.7063 5.60644 21.545 5.80894 21.545H9.33769C9.54019 21.545 9.70144 21.7063 9.70144 21.9088V23.8363C9.70144 24.0388 9.54019 24.2 9.33769 24.2ZM6.17269 23.4725H8.97394V22.2725H6.17269V23.4725Z" fill="white"/>
<path d="M20.7265 24.2H17.1977C16.9952 24.2 16.834 24.0388 16.834 23.8363V21.9088C16.834 21.7063 16.9952 21.545 17.1977 21.545H20.7265C20.929 21.545 21.0902 21.7063 21.0902 21.9088V23.8363C21.0902 24.0388 20.929 24.2 20.7265 24.2ZM17.5615 23.4725H20.3627V22.2725H17.5615V23.4725Z" fill="white"/>
<path d="M22.7702 19.3326C22.5677 19.3326 22.4064 19.1713 22.4064 18.9688V9.86007H11.7152V18.9651C11.7152 19.1676 11.5539 19.3288 11.3514 19.3288C11.1489 19.3288 10.9877 19.1676 10.9877 18.9651V9.49632C10.9877 9.29382 11.1489 9.13257 11.3514 9.13257H22.7702C22.9727 9.13257 23.1339 9.29382 23.1339 9.49632V18.9651C23.1339 19.1676 22.9727 19.3326 22.7702 19.3326Z" fill="white"/>
<path d="M24.1952 22.2726H1.5377C1.3352 22.2726 1.17395 22.1114 1.17395 21.9089V18.9689C1.17395 18.7664 1.3352 18.6051 1.5377 18.6051H24.1915C24.394 18.6051 24.5552 18.7664 24.5552 18.9689V21.9089C24.559 22.1076 24.394 22.2726 24.1952 22.2726ZM1.90145 21.5451H23.8277V19.3326H1.90145V21.5451Z" fill="white"/>
<path d="M5.5615 19.3326C5.359 19.3326 5.19775 19.1714 5.19775 18.9689V7.59886C5.19775 7.39636 5.359 7.23511 5.5615 7.23511C5.764 7.23511 5.92525 7.39636 5.92525 7.59886V18.9689C5.92525 19.1676 5.764 19.3326 5.5615 19.3326Z" fill="white"/>
<path d="M8.34776 19.3326C8.14526 19.3326 7.98401 19.1714 7.98401 18.9689V7.59886C7.98401 7.39636 8.14526 7.23511 8.34776 7.23511C8.55026 7.23511 8.71151 7.39636 8.71151 7.59886V18.9689C8.71151 19.1676 8.55026 19.3326 8.34776 19.3326Z" fill="white"/>
<path d="M11.8764 7.96257H2.0327C1.8302 7.96257 1.66895 7.80132 1.66895 7.59882V0.563823C1.66895 0.361323 1.83395 0.200073 2.0327 0.200073H11.8727C12.0752 0.200073 12.2364 0.361323 12.2364 0.563823V7.59882C12.2402 7.80132 12.0752 7.96257 11.8764 7.96257ZM2.39645 7.23507H11.5127V0.927573H2.39645V7.23507ZM6.95645 6.56382C5.5877 6.56382 4.47395 5.45007 4.47395 4.08132C4.47395 2.71257 5.5877 1.59882 6.95645 1.59882C8.3252 1.59882 9.43895 2.71257 9.43895 4.08132C9.43895 5.45007 8.3252 6.56382 6.95645 6.56382ZM6.95645 2.32632C5.98895 2.32632 5.20145 3.11382 5.20145 4.08132C5.20145 5.04882 5.98895 5.83632 6.95645 5.83632C7.92394 5.83632 8.71145 5.04882 8.71145 4.08132C8.71145 3.11382 7.92394 2.32632 6.95645 2.32632Z" fill="white"/>
<path d="M6.9565 6.56388C5.58775 6.56388 4.474 5.45013 4.474 4.08138C4.474 2.71263 5.58775 1.59888 6.9565 1.59888C8.32525 1.59888 9.439 2.71263 9.439 4.08138C9.439 5.45013 8.32525 6.56388 6.9565 6.56388ZM6.9565 2.32638C5.989 2.32638 5.2015 3.11388 5.2015 4.08138C5.2015 5.04888 5.989 5.83638 6.9565 5.83638C7.924 5.83638 8.7115 5.04888 8.7115 4.08138C8.7115 3.11388 7.924 2.32638 6.9565 2.32638Z" fill="white"/>
<path d="M6.9565 6.56388C5.58775 6.56388 4.474 5.45013 4.474 4.08138C4.474 2.71263 5.58775 1.59888 6.9565 1.59888C8.32525 1.59888 9.439 2.71263 9.439 4.08138C9.439 5.45013 8.32525 6.56388 6.9565 6.56388ZM6.9565 2.32638C5.989 2.32638 5.2015 3.11388 5.2015 4.08138C5.2015 5.04888 5.989 5.83638 6.9565 5.83638C7.924 5.83638 8.7115 5.04888 8.7115 4.08138C8.7115 3.11388 7.924 2.32638 6.9565 2.32638Z" fill="white"/>
<path d="M15.3264 13.6476C15.2814 13.6476 15.2364 13.6401 15.1951 13.6213C15.0564 13.5688 14.9626 13.4338 14.9626 13.2838V9.49632C14.9626 9.29382 15.1239 9.13257 15.3264 9.13257C15.5289 9.13257 15.6901 9.29382 15.6901 9.49632V12.3463L16.7926 11.1426C16.9314 10.9926 17.1901 10.9926 17.3289 11.1426L18.4314 12.3463V9.49632C18.4314 9.29382 18.5926 9.13257 18.7951 9.13257C18.9976 9.13257 19.1589 9.29382 19.1589 9.49632V13.2838C19.1589 13.4338 19.0651 13.5688 18.9264 13.6213C18.7876 13.6776 18.6301 13.6401 18.5251 13.5276L17.0589 11.9263L15.5926 13.5276C15.5251 13.6063 15.4276 13.6476 15.3264 13.6476Z" fill="white"/>
<path d="M6.95645 4.44511H5.87645C5.67395 4.44511 5.5127 4.28386 5.5127 4.08136C5.5127 3.87886 5.67395 3.71761 5.87645 3.71761H6.5927V2.88511C6.5927 2.68261 6.75395 2.52136 6.95645 2.52136C7.15895 2.52136 7.32019 2.68261 7.32019 2.88511V4.08136C7.32019 4.28386 7.1552 4.44511 6.95645 4.44511Z" fill="white"/>
</g>
<defs>
<clipPath id="clip0_1_1019">
<rect width="24" height="24" fill="white" transform="translate(0.866455 0.200073)"/>
</clipPath>
</defs>
</svg>
