<svg width="25" height="25" viewBox="0 0 25 25" fill="none" xmlns="http://www.w3.org/2000/svg">
<path d="M23.2082 2.82507H14.2082C14.1087 2.82508 14.0134 2.86459 13.943 2.93491C13.8727 3.00524 13.8332 3.10062 13.8332 3.20007V18.5751H12.4467L11.4162 17.8881C11.3546 17.847 11.2822 17.8251 11.2082 17.8251H10.8332V13.8136L11.5202 12.7831C11.5613 12.7215 11.5832 12.6491 11.5832 12.5751V11.4501C11.5832 11.3506 11.5437 11.2552 11.4734 11.1849C11.403 11.1146 11.3076 11.0751 11.2082 11.0751H10.6136L10.4329 10.8944C10.1151 10.5767 9.69705 10.3788 9.24982 10.3345C8.80259 10.2903 8.35384 10.4023 7.97991 10.6516L7.47833 10.9859L6.97537 10.5836C7.06201 10.2019 7.01807 9.80224 6.85057 9.44853C7.03353 9.35366 7.18695 9.21039 7.29409 9.03433C7.40124 8.85827 7.458 8.65617 7.45819 8.45007V7.93184L7.61658 7.85265C7.79478 7.7643 7.94467 7.62778 8.04924 7.45858C8.1538 7.28939 8.20887 7.09427 8.20819 6.89537V6.20007C8.20819 6.10062 8.16868 6.00524 8.09835 5.93491C8.02803 5.86459 7.93265 5.82508 7.83319 5.82507H6.11832C5.89926 5.82508 5.68383 5.88108 5.4925 5.98775C5.30117 6.09443 5.14028 6.24825 5.02512 6.43459C4.90995 6.62094 4.84433 6.83363 4.83449 7.05247C4.82465 7.27131 4.8709 7.48903 4.96887 7.68497L5.20819 8.1636V8.45007L5.20824 8.45119C4.79198 8.46135 4.3864 8.58501 4.03529 8.80882C3.68417 9.03263 3.40085 9.34809 3.21591 9.72115L2.06487 12.0232C1.9129 12.3281 1.83361 12.6639 1.83319 13.0045V13.7672C1.8329 14.0211 1.88447 14.2725 1.98476 14.5058L2.90537 16.6538L1.15305 19.1071C1.10145 19.1793 1.07715 19.2675 1.08447 19.356C1.09179 19.4445 1.13025 19.5275 1.19301 19.5903L3.06801 21.4653C3.13835 21.5356 3.23373 21.5751 3.33319 21.5751C3.43265 21.5751 3.52804 21.5356 3.59837 21.4653L3.97337 21.0903C4.04369 21.0199 4.08319 20.9245 4.08319 20.8251V19.0816L5.04733 17.8764C5.16195 17.7328 5.25995 17.5767 5.33946 17.411L5.58319 20.0921V21.2001C5.5832 21.2995 5.62271 21.3949 5.69303 21.4652C5.76336 21.5356 5.85874 21.5751 5.95819 21.5751H8.58319C8.68265 21.5751 8.77803 21.5356 8.84835 21.4652C8.91868 21.3949 8.95819 21.2995 8.95819 21.2001V20.4501H9.3977C9.47521 20.6694 9.61882 20.8593 9.80874 20.9936C9.99867 21.1279 10.2256 21.2001 10.4582 21.2001C10.6908 21.2001 10.9177 21.1279 11.1076 20.9936C11.2976 20.8593 11.4412 20.6694 11.5187 20.4501H13.8332V21.2001C13.8332 21.2995 13.8727 21.3949 13.943 21.4652C14.0134 21.5356 14.1087 21.5751 14.2082 21.5751H15.7082C15.8076 21.5751 15.903 21.5356 15.9734 21.4652C16.0437 21.3949 16.0832 21.2995 16.0832 21.2001V20.4501H21.3332V21.2001C21.3332 21.2995 21.3727 21.3949 21.443 21.4652C21.5134 21.5356 21.6087 21.5751 21.7082 21.5751H23.2082C23.3076 21.5751 23.403 21.5356 23.4734 21.4652C23.5437 21.3949 23.5832 21.2995 23.5832 21.2001V3.20007C23.5832 3.10062 23.5437 3.00524 23.4734 2.93491C23.403 2.86459 23.3076 2.82508 23.2082 2.82507ZM9.33319 17.8251V14.0751H10.0832V17.8251H9.33319ZM10.4582 12.2001C10.5576 12.2001 10.653 12.1606 10.7234 12.0902C10.7937 12.0199 10.8332 11.9245 10.8332 11.8251V12.4615L10.2575 13.3251H9.15888L8.75865 12.7247L9.45821 12.2001H10.4582ZM7.6662 11.7621L8.39597 11.2756C8.62563 11.1225 8.90125 11.0537 9.17593 11.0809C9.45061 11.1081 9.70739 11.2296 9.90256 11.4248L9.92787 11.4501H9.33319C9.25206 11.4501 9.17312 11.4764 9.1082 11.5251L8.19286 12.2116C7.91254 12.4219 7.57739 12.5466 7.22779 12.5708C6.8782 12.5949 6.52907 12.5174 6.22251 12.3477L6.88151 11.469L7.22391 11.7429C7.28606 11.7926 7.36241 11.8213 7.44192 11.8247C7.52143 11.8282 7.59998 11.8062 7.6662 11.7621ZM5.99399 8.60784C5.97061 8.55852 5.95839 8.50465 5.95819 8.45007V7.90401C6.17234 8.07156 6.43628 8.16287 6.70819 8.16347V8.45007C6.70803 8.54644 6.6708 8.63904 6.60421 8.7087C6.53762 8.77835 6.44678 8.81971 6.35052 8.82419C6.24066 8.73821 6.12098 8.66558 5.99399 8.60784ZM6.11832 6.57507H7.45819V6.89537C7.45839 6.95489 7.44191 7.01328 7.41061 7.06392C7.37932 7.11455 7.33446 7.1554 7.28113 7.18184L6.91547 7.36467C6.80549 7.4195 6.67826 7.4285 6.56167 7.38963C6.44509 7.35077 6.34868 7.26725 6.2936 7.15739C6.26702 7.10425 6.2282 7.05817 6.18033 7.02297C6.13246 6.98777 6.07691 6.96445 6.01826 6.95493C5.95961 6.9454 5.89953 6.94995 5.84298 6.9682C5.78643 6.98645 5.73503 7.01788 5.69301 7.05989L5.58649 7.16641C5.57813 7.09175 5.58567 7.01616 5.60863 6.94462C5.63158 6.87309 5.66942 6.80722 5.71966 6.75136C5.7699 6.6955 5.8314 6.65091 5.90011 6.62052C5.96882 6.59014 6.04319 6.57465 6.11832 6.57507ZM3.88672 10.0565C4.01462 9.79856 4.21225 9.58158 4.4572 9.43019C4.70214 9.27881 4.98461 9.19909 5.27255 9.20007C5.50319 9.19991 5.72671 9.27987 5.9049 9.4263C6.08309 9.57272 6.20488 9.77651 6.24942 10.0028L5.81748 9.65724L5.34891 10.2429L6.29556 11.0002L5.62081 11.8999L4.69248 11.1572L4.22391 11.7429L4.73008 12.1478L4.67783 12.2001H2.81496L3.88672 10.0565ZM1.948 19.2845L2.13803 19.0185L3.33319 19.2575V20.6698L1.948 19.2845ZM4.46167 17.4079L3.55793 18.5376L2.61606 18.3492L3.63834 16.918C3.67579 16.8656 3.6991 16.8044 3.70602 16.7404C3.71295 16.6763 3.70326 16.6116 3.67789 16.5524L2.98497 14.9356L4.78136 15.9336C4.84562 16.1873 4.85019 16.4525 4.79473 16.7083C4.73926 16.9641 4.62526 17.2036 4.46167 17.4079ZM5.76529 15.6223L3.3261 14.2672C3.10099 14.142 2.91342 13.9589 2.78281 13.737C2.6522 13.515 2.58328 13.2621 2.58319 13.0045C2.58319 12.9864 2.5841 12.9682 2.58479 12.9501H4.45819V13.3251C4.45819 13.3912 4.47567 13.4561 4.50885 13.5133C4.54204 13.5705 4.58975 13.6179 4.64716 13.6507L6.5163 14.7187C6.68834 14.8173 6.83133 14.9596 6.93086 15.1311C7.03039 15.3026 7.08293 15.4973 7.08319 15.6956V19.4073L6.29199 19.6051L5.95664 15.9161C5.95111 15.8552 5.93079 15.7967 5.89744 15.7454C5.86409 15.6942 5.81872 15.6519 5.76529 15.6223ZM8.20819 20.8251H6.33319V20.3678L7.3882 20.1041L8.20819 20.6508V20.8251ZM7.83319 19.4994V15.6956C7.83276 15.3651 7.7452 15.0406 7.57932 14.7547C7.41345 14.4689 7.17513 14.2319 6.88841 14.0676L5.20819 13.1075V12.7304L5.31936 12.6192L5.49837 12.7624C5.86175 13.0535 6.29755 13.2401 6.75896 13.3022C7.22038 13.3643 7.68999 13.2995 8.11739 13.1149L8.58319 13.8136V19.9994L7.83319 19.4994ZM10.4582 20.4501C10.384 20.4501 10.3115 20.4281 10.2499 20.3869C10.1882 20.3457 10.1401 20.2871 10.1117 20.2186C10.0834 20.1501 10.0759 20.0747 10.0904 20.0019C10.1049 19.9292 10.1406 19.8624 10.193 19.8099C10.2455 19.7575 10.3123 19.7217 10.385 19.7073C10.4578 19.6928 10.5332 19.7002 10.6017 19.7286C10.6702 19.757 10.7288 19.8051 10.77 19.8667C10.8112 19.9284 10.8332 20.0009 10.8332 20.0751C10.8331 20.1745 10.7935 20.2698 10.7232 20.3401C10.6529 20.4104 10.5576 20.45 10.4582 20.4501ZM11.9582 19.7001H11.5187C11.4412 19.4807 11.2976 19.2908 11.1076 19.1565C10.9177 19.0222 10.6908 18.9501 10.4582 18.9501C10.2256 18.9501 9.99867 19.0222 9.80874 19.1565C9.61882 19.2908 9.47521 19.4807 9.3977 19.7001H9.33319V18.5751H11.0947L11.9582 19.1508V19.7001ZM16.8332 8.07507V7.32507H18.3332V10.3251H14.5832V7.32507H16.0832V8.07507H16.8332ZM21.3332 8.07507V7.32507H22.8332V10.3251H19.0832V7.32507H20.5832V8.07507H21.3332ZM22.8332 14.0751H19.0832V11.0751H20.5832V11.8251H21.3332V11.0751H22.8332V14.0751ZM22.8332 17.8251H19.0832V14.8251H20.5832V15.5751H21.3332V14.8251H22.8332V17.8251ZM14.5832 17.8251V14.8251H16.0832V15.5751H16.8332V14.8251H18.3332V17.8251H14.5832ZM14.5832 11.0751H16.0832V11.8251H16.8332V11.0751H18.3332V14.0751H14.5832V11.0751ZM14.5832 18.5751H22.8332V19.7001H14.5832V18.5751ZM22.8332 6.57507H19.0832V3.57507H20.5832V4.32507H21.3332V3.57507H22.8332V6.57507ZM14.5832 3.57507H16.0832V4.32507H16.8332V3.57507H18.3332V6.57507H14.5832V3.57507ZM13.8332 19.7001H12.7082V19.3251H13.8332V19.7001ZM15.3332 20.8251H14.5832V20.4501H15.3332V20.8251ZM22.0832 20.8251V20.4501H22.8332V20.8251H22.0832Z" fill="white"/>
</svg>
