<svg width="25" height="25" viewBox="0 0 25 25" fill="none" xmlns="http://www.w3.org/2000/svg">
<g clip-path="url(#clip0_1_1064)">
<path d="M23.2747 20.3H22.8997V14.675C22.8997 14.468 22.7318 14.3 22.5247 14.3H16.1497V8.67505C16.1497 8.46796 15.9818 8.30005 15.7747 8.30005H9.39966V2.67505C9.39966 2.46796 9.23175 2.30005 9.02466 2.30005H2.27466C2.06756 2.30005 1.89966 2.46796 1.89966 2.67505V20.3H1.52466C1.31756 20.3 1.14966 20.468 1.14966 20.675V22.175C1.14966 22.3821 1.31756 22.55 1.52466 22.55H1.89966V23.675C1.89966 23.8821 2.06756 24.05 2.27466 24.05H4.52466C4.73175 24.05 4.89966 23.8821 4.89966 23.675V22.55H10.8997V23.675C10.8997 23.8821 11.0676 24.05 11.2747 24.05H13.5247C13.7318 24.05 13.8997 23.8821 13.8997 23.675V22.55H19.8997V23.675C19.8997 23.8821 20.0676 24.05 20.2747 24.05H22.5247C22.7318 24.05 22.8997 23.8821 22.8997 23.675V22.55H23.2747C23.4818 22.55 23.6497 22.3821 23.6497 22.175V20.675C23.6497 20.468 23.4818 20.3 23.2747 20.3ZM18.7747 15.05H19.5247V16.3183L19.3174 16.2147C19.2645 16.1882 19.2071 16.175 19.1497 16.175C19.0922 16.175 19.0348 16.1882 18.9819 16.2147L18.7747 16.3183V15.05ZM16.1497 15.05H18.0247V16.925C18.0247 17.055 18.092 17.1757 18.2025 17.2441C18.3131 17.3124 18.4511 17.3186 18.5674 17.2605L19.1497 16.9693L19.7319 17.2604C19.7849 17.2869 19.8423 17.3 19.8997 17.3C19.9682 17.3 20.0366 17.2813 20.0968 17.2441C20.2073 17.1757 20.2747 17.055 20.2747 16.925V15.05H22.1497V20.3H16.1497V15.05ZM12.0247 9.05005H12.7747V10.3183L12.5674 10.2147C12.5145 10.1882 12.4571 10.175 12.3997 10.175C12.3422 10.175 12.2848 10.1882 12.2319 10.2147L12.0247 10.3183V9.05005ZM9.39966 9.05005H11.2747V10.925C11.2747 11.055 11.342 11.1757 11.4525 11.2441C11.5631 11.3124 11.7011 11.3186 11.8174 11.2605L12.3997 10.9693L12.9819 11.2604C13.0349 11.2869 13.0923 11.3 13.1497 11.3C13.2182 11.3 13.2866 11.2813 13.3468 11.2441C13.4573 11.1757 13.5247 11.055 13.5247 10.925V9.05005H15.3997V14.3H9.39966V9.05005ZM12.7747 15.05V16.3183L12.5674 16.2147C12.5145 16.1882 12.4571 16.175 12.3997 16.175C12.3422 16.175 12.2848 16.1882 12.2319 16.2147L12.0247 16.3183V15.05H12.7747ZM9.39966 15.05H11.2747V16.925C11.2747 17.055 11.342 17.1757 11.4525 17.2441C11.5631 17.3124 11.7011 17.3186 11.8174 17.2605L12.3997 16.9693L12.9819 17.2604C13.0349 17.2869 13.0923 17.3 13.1497 17.3C13.2182 17.3 13.2866 17.2813 13.3468 17.2441C13.4573 17.1757 13.5247 17.055 13.5247 16.925V15.05H15.3997V20.3H9.39966V15.05ZM5.27466 3.05005H6.02466V4.3183L5.81738 4.21466C5.76455 4.18822 5.70713 4.17505 5.64966 4.17505C5.59219 4.17505 5.53477 4.18822 5.48194 4.21466L5.27466 4.3183V3.05005ZM2.64966 3.05005H4.52466V4.92505C4.52466 5.05499 4.59197 5.17574 4.7025 5.24408C4.81308 5.31242 4.95103 5.31856 5.06738 5.26049L5.64966 4.9693L6.23194 5.26044C6.28491 5.28692 6.34233 5.30005 6.39966 5.30005C6.46819 5.30005 6.53658 5.2813 6.59681 5.24408C6.70735 5.17574 6.77466 5.05499 6.77466 4.92505V3.05005H8.64966V8.30005H2.64966V3.05005ZM6.02466 9.05005V10.3183L5.81738 10.2147C5.76455 10.1882 5.70713 10.175 5.64966 10.175C5.59219 10.175 5.53477 10.1882 5.48194 10.2147L5.27466 10.3183V9.05005H6.02466ZM2.64966 9.05005H4.52466V10.925C4.52466 11.055 4.59197 11.1757 4.7025 11.2441C4.81308 11.3124 4.95103 11.3186 5.06738 11.2605L5.64966 10.9693L6.23194 11.2604C6.28491 11.2869 6.34233 11.3 6.39966 11.3C6.46819 11.3 6.53658 11.2813 6.59681 11.2441C6.70735 11.1757 6.77466 11.055 6.77466 10.925V9.05005H8.64966V14.3H2.64966V9.05005ZM6.02466 15.05V16.3183L5.81738 16.2147C5.76455 16.1882 5.70713 16.175 5.64966 16.175C5.59219 16.175 5.53477 16.1882 5.48194 16.2147L5.27466 16.3183V15.05H6.02466ZM2.64966 15.05H4.52466V16.925C4.52466 17.055 4.59197 17.1757 4.7025 17.2441C4.81308 17.3124 4.95103 17.3186 5.06738 17.2605L5.64966 16.9693L6.23194 17.2604C6.28491 17.2869 6.34233 17.3 6.39966 17.3C6.46819 17.3 6.53658 17.2813 6.59681 17.2441C6.70735 17.1757 6.77466 17.055 6.77466 16.925V15.05H8.64966V20.3H2.64966V15.05ZM4.14966 23.3H2.64966V22.55H4.14966V23.3ZM13.1497 23.3H11.6497V22.55H13.1497V23.3ZM22.1497 23.3H20.6497V22.55H22.1497V23.3ZM22.8997 21.8H1.89966V21.05H22.8997V21.8Z" fill="white"/>
<path d="M14.6497 18.05H13.5247C13.3176 18.05 13.1497 18.218 13.1497 18.425V19.55C13.1497 19.7571 13.3176 19.925 13.5247 19.925H14.6497C14.8568 19.925 15.0247 19.7571 15.0247 19.55V18.425C15.0247 18.218 14.8568 18.05 14.6497 18.05ZM14.2747 19.175H13.8997V18.8H14.2747V19.175Z" fill="white"/>
<path d="M10.8997 19.175H10.1497C9.94256 19.175 9.77466 19.343 9.77466 19.55C9.77466 19.7571 9.94256 19.925 10.1497 19.925H10.8997C11.1068 19.925 11.2747 19.7571 11.2747 19.55C11.2747 19.343 11.1068 19.175 10.8997 19.175Z" fill="white"/>
<path d="M10.8997 18.05H10.1497C9.94256 18.05 9.77466 18.218 9.77466 18.425C9.77466 18.6321 9.94256 18.8 10.1497 18.8H10.8997C11.1068 18.8 11.2747 18.6321 11.2747 18.425C11.2747 18.218 11.1068 18.05 10.8997 18.05Z" fill="white"/>
<path d="M21.3997 18.05H20.2747C20.0676 18.05 19.8997 18.218 19.8997 18.425V19.55C19.8997 19.7571 20.0676 19.925 20.2747 19.925H21.3997C21.6068 19.925 21.7747 19.7571 21.7747 19.55V18.425C21.7747 18.218 21.6068 18.05 21.3997 18.05ZM21.0247 19.175H20.6497V18.8H21.0247V19.175Z" fill="white"/>
<path d="M17.6497 19.175H16.8997C16.6926 19.175 16.5247 19.343 16.5247 19.55C16.5247 19.7571 16.6926 19.925 16.8997 19.925H17.6497C17.8568 19.925 18.0247 19.7571 18.0247 19.55C18.0247 19.343 17.8568 19.175 17.6497 19.175Z" fill="white"/>
<path d="M17.6497 18.05H16.8997C16.6926 18.05 16.5247 18.218 16.5247 18.425C16.5247 18.6321 16.6926 18.8 16.8997 18.8H17.6497C17.8568 18.8 18.0247 18.6321 18.0247 18.425C18.0247 18.218 17.8568 18.05 17.6497 18.05Z" fill="white"/>
<path d="M4.52466 18.05H3.39966C3.19256 18.05 3.02466 18.218 3.02466 18.425V19.55C3.02466 19.7571 3.19256 19.925 3.39966 19.925H4.52466C4.73175 19.925 4.89966 19.7571 4.89966 19.55V18.425C4.89966 18.218 4.73175 18.05 4.52466 18.05ZM4.14966 19.175H3.77466V18.8H4.14966V19.175Z" fill="white"/>
<path d="M7.89966 19.175H7.14966C6.94256 19.175 6.77466 19.343 6.77466 19.55C6.77466 19.7571 6.94256 19.925 7.14966 19.925H7.89966C8.10675 19.925 8.27466 19.7571 8.27466 19.55C8.27466 19.343 8.10675 19.175 7.89966 19.175Z" fill="white"/>
<path d="M7.89966 18.05H7.14966C6.94256 18.05 6.77466 18.218 6.77466 18.425C6.77466 18.6321 6.94256 18.8 7.14966 18.8H7.89966C8.10675 18.8 8.27466 18.6321 8.27466 18.425C8.27466 18.218 8.10675 18.05 7.89966 18.05Z" fill="white"/>
<path d="M14.6497 12.05H13.5247C13.3176 12.05 13.1497 12.218 13.1497 12.425V13.55C13.1497 13.7571 13.3176 13.925 13.5247 13.925H14.6497C14.8568 13.925 15.0247 13.7571 15.0247 13.55V12.425C15.0247 12.218 14.8568 12.05 14.6497 12.05ZM14.2747 13.175H13.8997V12.8H14.2747V13.175Z" fill="white"/>
<path d="M10.8997 13.175H10.1497C9.94256 13.175 9.77466 13.343 9.77466 13.55C9.77466 13.7571 9.94256 13.925 10.1497 13.925H10.8997C11.1068 13.925 11.2747 13.7571 11.2747 13.55C11.2747 13.343 11.1068 13.175 10.8997 13.175Z" fill="white"/>
<path d="M10.8997 12.05H10.1497C9.94256 12.05 9.77466 12.218 9.77466 12.425C9.77466 12.6321 9.94256 12.8 10.1497 12.8H10.8997C11.1068 12.8 11.2747 12.6321 11.2747 12.425C11.2747 12.218 11.1068 12.05 10.8997 12.05Z" fill="white"/>
<path d="M4.52466 12.05H3.39966C3.19256 12.05 3.02466 12.218 3.02466 12.425V13.55C3.02466 13.7571 3.19256 13.925 3.39966 13.925H4.52466C4.73175 13.925 4.89966 13.7571 4.89966 13.55V12.425C4.89966 12.218 4.73175 12.05 4.52466 12.05ZM4.14966 13.175H3.77466V12.8H4.14966V13.175Z" fill="white"/>
<path d="M7.89966 13.175H7.14966C6.94256 13.175 6.77466 13.343 6.77466 13.55C6.77466 13.7571 6.94256 13.925 7.14966 13.925H7.89966C8.10675 13.925 8.27466 13.7571 8.27466 13.55C8.27466 13.343 8.10675 13.175 7.89966 13.175Z" fill="white"/>
<path d="M7.89966 12.05H7.14966C6.94256 12.05 6.77466 12.218 6.77466 12.425C6.77466 12.6321 6.94256 12.8 7.14966 12.8H7.89966C8.10675 12.8 8.27466 12.6321 8.27466 12.425C8.27466 12.218 8.10675 12.05 7.89966 12.05Z" fill="white"/>
<path d="M4.52466 6.05005H3.39966C3.19256 6.05005 3.02466 6.21796 3.02466 6.42505V7.55005C3.02466 7.75714 3.19256 7.92505 3.39966 7.92505H4.52466C4.73175 7.92505 4.89966 7.75714 4.89966 7.55005V6.42505C4.89966 6.21796 4.73175 6.05005 4.52466 6.05005ZM4.14966 7.17505H3.77466V6.80005H4.14966V7.17505Z" fill="white"/>
<path d="M7.89966 6.05005H7.14966C6.94256 6.05005 6.77466 6.21796 6.77466 6.42505C6.77466 6.63214 6.94256 6.80005 7.14966 6.80005H7.89966C8.10675 6.80005 8.27466 6.63214 8.27466 6.42505C8.27466 6.21796 8.10675 6.05005 7.89966 6.05005Z" fill="white"/>
<path d="M12.1345 7.44022C12.2077 7.51344 12.3037 7.55005 12.3997 7.55005C12.4957 7.55005 12.5917 7.51344 12.6649 7.44022L14.5399 5.56522C14.6471 5.45797 14.6792 5.29667 14.6211 5.15652C14.563 5.01636 14.4263 4.92505 14.2747 4.92505H13.5247V2.67505C13.5247 2.46796 13.3568 2.30005 13.1497 2.30005H11.6497C11.4426 2.30005 11.2747 2.46796 11.2747 2.67505V4.92505H10.5247C10.3731 4.92505 10.2363 5.01641 10.1782 5.15652C10.1202 5.29663 10.1522 5.45797 10.2595 5.56522L12.1345 7.44022ZM11.6497 5.67505C11.8568 5.67505 12.0247 5.50714 12.0247 5.30005V3.05005H12.7747V5.30005C12.7747 5.50714 12.9426 5.67505 13.1497 5.67505H13.3694L12.3997 6.64475L11.43 5.67505H11.6497Z" fill="white"/>
<path d="M18.8845 13.4402C18.9577 13.5134 19.0537 13.55 19.1497 13.55C19.2457 13.55 19.3417 13.5134 19.4149 13.4402L21.2899 11.5652C21.3971 11.458 21.4292 11.2967 21.3711 11.1565C21.313 11.0164 21.1763 10.925 21.0247 10.925H20.2747V8.67505C20.2747 8.46796 20.1068 8.30005 19.8997 8.30005H18.3997C18.1926 8.30005 18.0247 8.46796 18.0247 8.67505V10.925H17.2747C17.1231 10.925 16.9863 11.0164 16.9282 11.1565C16.8702 11.2966 16.9022 11.458 17.0095 11.5652L18.8845 13.4402ZM18.3997 11.675C18.6068 11.675 18.7747 11.5071 18.7747 11.3V9.05005H19.5247V11.3C19.5247 11.5071 19.6926 11.675 19.8997 11.675H20.1194L19.1497 12.6448L18.18 11.675H18.3997Z" fill="white"/>
<path d="M18.8845 7.44022C18.9577 7.51344 19.0537 7.55005 19.1497 7.55005C19.2457 7.55005 19.3417 7.51344 19.4149 7.44022L21.2899 5.56522C21.3971 5.45797 21.4292 5.29667 21.3711 5.15652C21.313 5.01636 21.1763 4.92505 21.0247 4.92505H20.2747V2.67505C20.2747 2.46796 20.1068 2.30005 19.8997 2.30005H18.3997C18.1926 2.30005 18.0247 2.46796 18.0247 2.67505V4.92505H17.2747C17.1231 4.92505 16.9863 5.01641 16.9282 5.15652C16.8702 5.29663 16.9022 5.45797 17.0095 5.56522L18.8845 7.44022ZM18.3997 5.67505C18.6068 5.67505 18.7747 5.50714 18.7747 5.30005V3.05005H19.5247V5.30005C19.5247 5.50714 19.6926 5.67505 19.8997 5.67505H20.1194L19.1497 6.64475L18.18 5.67505H18.3997Z" fill="white"/>
</g>
<defs>
<clipPath id="clip0_1_1064">
<rect width="24" height="24" fill="white" transform="translate(0.399658 0.800049)"/>
</clipPath>
</defs>
</svg>
