<svg width="25" height="24" viewBox="0 0 25 24" fill="none" xmlns="http://www.w3.org/2000/svg">
<path d="M22.044 6.09602L17.052 3.21602C16.956 2.40002 16.62 1.82402 16.044 1.48802C15.996 1.44002 14.7 0.672023 14.556 0.624023C13.932 0.384023 13.116 0.480023 12.3 0.960023C11.916 1.20002 11.484 1.53602 11.148 1.87202L2.50801 6.81602C2.41201 6.86402 2.36401 6.96002 2.36401 7.00802C2.36401 7.10402 2.41201 18 2.41201 18.048C2.41201 18.144 2.46001 18.192 2.50801 18.24C5.38801 19.92 11.82 23.664 11.484 23.472C11.58 23.52 11.628 23.52 11.724 23.472C11.772 23.424 21.948 17.568 21.996 17.52C22.092 17.472 22.14 17.376 22.14 17.328L22.092 6.28802C22.14 6.24002 22.092 6.14402 22.044 6.09602ZM11.628 11.952L8.36401 10.032L9.42001 8.20802C9.56401 8.49602 9.80401 8.68802 10.044 8.83202C10.14 8.88002 11.244 9.50402 11.292 9.55202C11.58 9.69602 11.916 9.79202 12.252 9.79202C12.732 9.79202 13.26 9.64802 13.788 9.31202C15.228 8.49602 16.476 6.67202 16.908 4.84802C17.004 4.46402 17.052 4.08002 17.052 3.64802L21.42 6.19202C8.02801 14.064 12.636 11.376 11.628 11.952ZM7.78801 10.272C7.78801 10.32 7.78801 11.952 7.78801 11.856C7.74001 11.808 7.02001 11.376 7.06801 11.424V9.84002L7.78801 10.272ZM8.46001 12.816C8.70001 12.96 8.94001 13.344 8.94001 13.68C8.94001 13.872 8.89201 13.92 8.70001 13.824L5.82001 12.144C5.58001 12 5.34001 11.616 5.34001 11.28C5.34001 11.088 5.38801 11.04 5.58001 11.136C5.67601 11.184 8.50801 12.864 8.46001 12.816ZM10.428 8.59202L10.236 8.49602C9.99601 8.35202 9.80401 8.11202 9.66001 7.82402L10.284 6.76802V6.81602C10.284 7.00802 10.236 7.20002 10.236 7.39202C10.236 7.82402 10.332 8.25602 10.428 8.59202ZM16.572 3.69602C16.572 4.08002 16.524 4.46402 16.428 4.84802C16.044 6.52802 14.844 8.20802 13.5 8.97602C11.964 9.84002 10.716 9.26402 10.668 7.48802C10.62 6.57602 10.956 5.56802 11.34 4.75202C11.82 3.79202 12.588 2.83202 13.5 2.20802C14.172 1.77602 15.036 1.48802 15.708 1.87202C16.284 2.16002 16.572 2.83202 16.572 3.69602ZM12.492 1.34402C13.212 0.912023 13.884 0.816023 14.412 1.05602C14.556 1.10402 14.508 1.10402 14.7 1.20002C14.316 1.24802 13.836 1.44002 13.308 1.77602C12.3 2.44802 11.484 3.45602 10.956 4.51202C10.86 4.70402 7.93201 9.79202 7.93201 9.74402L7.11601 9.26402C10.236 3.88802 10.812 2.35202 12.492 1.34402ZM10.236 2.92802C10.092 3.12002 6.73201 9.07202 6.68401 9.12002C6.63601 9.07202 3.03601 7.00802 3.08401 7.05602L10.236 2.92802ZM2.89201 7.44002C2.94001 7.48802 6.78001 9.69602 6.58801 9.60002V11.184L5.86801 10.752C5.38801 10.464 4.90801 10.752 4.90801 11.328C4.90801 11.808 5.24401 12.336 5.62801 12.576L8.50801 14.256C8.98801 14.544 9.46801 14.256 9.46801 13.68C9.46801 13.2 9.13201 12.672 8.74801 12.432L8.31601 12.192C8.31601 12.144 8.31601 10.464 8.31601 10.608L11.436 12.432C11.436 13.488 11.436 8.54402 11.484 22.896L2.94001 17.904L2.89201 7.44002ZM11.916 22.848C11.868 9.02402 11.868 13.488 11.868 12.384C12.78 11.856 20.604 7.34402 21.66 6.72002L21.708 17.184L11.916 22.848Z" fill="white"/>
<path d="M13.548 3.64806C12.684 4.17606 11.964 5.32806 12.012 6.33606C12.012 7.29606 12.684 7.72806 13.356 7.53606C14.412 7.29606 15.372 5.85606 15.372 4.65606C15.324 3.60006 14.46 3.12006 13.548 3.64806ZM13.548 6.96006C13.068 7.24806 12.636 7.20006 12.492 6.67206C13.356 6.19206 14.076 4.99206 14.076 3.98406C14.604 3.84006 14.844 4.17606 14.844 4.70406C14.844 5.52006 14.22 6.57606 13.548 6.96006ZM13.548 4.22406C13.452 4.89606 13.02 5.66406 12.444 6.09606C12.588 5.42406 13.02 4.65606 13.548 4.22406Z" fill="white"/>
<path d="M20.5081 15.0239C20.3641 15.0239 20.2681 15.1199 20.2681 15.2639V16.4159C20.2681 16.5599 20.3641 16.6559 20.5081 16.6559C20.6521 16.6559 20.7481 16.5599 20.7481 16.4159V15.2639C20.7481 15.1199 20.6521 15.0239 20.5081 15.0239Z" fill="white"/>
<path d="M19.356 15.696C19.212 15.696 19.116 15.792 19.116 15.936V17.088C19.116 17.232 19.212 17.328 19.356 17.328C19.5 17.328 19.596 17.232 19.596 17.088V15.936C19.596 15.792 19.5 15.696 19.356 15.696Z" fill="white"/>
<path d="M18.204 16.3679C18.06 16.3679 17.964 16.4639 17.964 16.6079V17.7599C17.964 17.9039 18.06 17.9999 18.204 17.9999C18.348 17.9999 18.444 17.9039 18.444 17.7599V16.6079C18.444 16.4639 18.348 16.3679 18.204 16.3679Z" fill="white"/>
</svg>
