<svg width="25" height="25" viewBox="0 0 25 25" fill="none" xmlns="http://www.w3.org/2000/svg">
<path fill-rule="evenodd" clip-rule="evenodd" d="M1.92694 20.8614H22.7394V20.0836C22.7394 20.0836 7.93716 20.0836 1.92694 20.0836C1.92694 20.0836 1.92694 20.8621 1.92694 20.8617V20.8614ZM13.7723 21.6114V23.2063C13.7719 23.4051 13.6928 23.5957 13.5522 23.7363C13.4116 23.8769 13.2211 23.956 13.0223 23.9563H11.6441C11.4453 23.956 11.2547 23.8769 11.1142 23.7363C10.9736 23.5957 10.8945 23.4051 10.8941 23.2063V21.6114H5.05749V23.2063C5.05717 23.4051 4.97804 23.5957 4.83746 23.7363C4.69688 23.8769 4.5063 23.956 4.30749 23.9563H2.92969C2.73088 23.956 2.5403 23.8769 2.39972 23.7363C2.25913 23.5957 2.18001 23.4051 2.17969 23.2063V21.6114C1.87866 21.6114 1.64063 21.6351 1.39688 21.3913C1.32714 21.3218 1.27181 21.2392 1.23407 21.1483C1.19633 21.0573 1.17691 20.9598 1.17694 20.8614V20.0833C1.17726 19.8844 1.25638 19.6939 1.39697 19.5533C1.53755 19.4127 1.72813 19.3336 1.92694 19.3333H3.11335V11.7629C3.11369 11.5742 3.18883 11.3933 3.32229 11.2599C3.45576 11.1265 3.63666 11.0514 3.82538 11.0511H11.4337C11.6224 11.0514 11.8033 11.1265 11.9368 11.26C12.0703 11.3934 12.1454 11.5744 12.1457 11.7631V19.3334H12.5207V11.7631C12.521 11.5744 12.5961 11.3935 12.7295 11.26C12.863 11.1265 13.0439 11.0514 13.2327 11.0511H20.841C21.0297 11.0514 21.2107 11.1265 21.3441 11.26C21.4776 11.3935 21.5527 11.5744 21.553 11.7631V19.3334H22.7394C22.9383 19.3338 23.1288 19.4129 23.2694 19.5535C23.41 19.694 23.4891 19.8846 23.4894 20.0834V20.8616C23.4891 21.0604 23.41 21.251 23.2694 21.3915C23.1288 21.5321 22.9383 21.6112 22.7394 21.6116H22.4867V23.2063C22.4864 23.4051 22.4072 23.5957 22.2667 23.7363C22.1261 23.8768 21.9355 23.956 21.7367 23.9563H20.3589C20.1601 23.956 19.9695 23.8769 19.8289 23.7363C19.6883 23.5957 19.6092 23.4051 19.6089 23.2063V21.6114H13.7723ZM11.6446 21.6114C11.6446 21.8841 11.6441 23.2066 11.6446 23.2059C11.6442 23.2064 12.8118 23.2062 13.0221 23.2062V21.6114L11.6446 21.6114ZM20.3592 21.6114V23.2062H21.7369C21.7369 23.2065 21.7369 22.0372 21.7369 21.6113L20.3592 21.6114ZM13.8095 5.92063L16.7321 1.802C16.7672 1.75295 16.8135 1.71309 16.8673 1.6858C16.9211 1.65851 16.9806 1.6446 17.0409 1.64525C17.1012 1.6459 17.1604 1.66109 17.2136 1.68953C17.2667 1.71797 17.3122 1.75882 17.3462 1.80861L20.2802 5.94299C20.3194 5.99906 20.3426 6.06476 20.3471 6.13302C20.3517 6.20127 20.3375 6.26947 20.3062 6.33027C20.2748 6.39106 20.2274 6.44213 20.1692 6.47797C20.1109 6.51381 20.044 6.53305 19.9755 6.53361L18.8812 6.53464V10.0128C18.8807 10.1885 18.8107 10.3569 18.6865 10.4811C18.5622 10.6054 18.3938 10.6754 18.2181 10.6759H15.8556C15.6798 10.6757 15.5113 10.6058 15.387 10.4815C15.2627 10.3572 15.1928 10.1888 15.1926 10.013V6.53488H14.0982C14.0271 6.53469 13.9575 6.51431 13.8975 6.47611C13.8375 6.43791 13.7896 6.38347 13.7593 6.3191C13.7291 6.25474 13.7177 6.18311 13.7266 6.11255C13.7355 6.04199 13.7642 5.9754 13.8095 5.92053V5.92063ZM17.0368 2.66497L14.8228 5.78497H15.5676C15.667 5.78497 15.7624 5.82448 15.8327 5.89481C15.9031 5.96513 15.9426 6.06051 15.9426 6.15997V9.9261H18.1313V6.15997C18.1313 6.06051 18.1708 5.96513 18.2411 5.89481C18.3115 5.82448 18.4068 5.78497 18.5063 5.78497H19.251L17.0369 2.66497H17.0368ZM9.03985 2.3938V4.08936C9.03985 4.18882 9.00034 4.2842 8.93001 4.35453C8.85969 4.42485 8.7643 4.46436 8.66485 4.46436H6.59419C6.49473 4.46436 6.39935 4.42485 6.32903 4.35453C6.2587 4.2842 6.21919 4.18882 6.21919 4.08936V2.3938H3.86335V9.9261H11.3957V2.3938H9.03985ZM6.96919 2.3938H8.28985V3.71436H6.96919V2.3938ZM3.82538 1.6438H11.4337C11.6224 1.64408 11.8034 1.71919 11.9368 1.85266C12.0703 1.98613 12.1454 2.16708 12.1457 2.35583V9.96411C12.1454 10.1529 12.0703 10.3338 11.9368 10.4672C11.8033 10.6007 11.6224 10.6758 11.4337 10.6761H3.82538C3.63663 10.6758 3.4557 10.6007 3.32223 10.4672C3.18876 10.3338 3.11364 10.1529 3.11335 9.96411V2.35583C3.11363 2.16708 3.18874 1.98613 3.32221 1.85266C3.45568 1.71919 3.63662 1.64408 3.82538 1.6438ZM18.4471 11.8011V13.4967C18.4471 13.5962 18.4076 13.6915 18.3373 13.7619C18.267 13.8322 18.1716 13.8717 18.0721 13.8717H16.0015C15.9021 13.8717 15.8067 13.8322 15.7364 13.7619C15.666 13.6915 15.6265 13.5962 15.6265 13.4967V11.8011H13.2707V19.3334H20.803V11.8011H18.4471ZM16.3765 11.8011V13.1217H17.6971V11.8011H16.3765ZM9.03985 11.8011V13.4967C9.03985 13.5962 9.00034 13.6915 8.93001 13.7619C8.85969 13.8322 8.7643 13.8717 8.66485 13.8717H6.59419C6.49473 13.8717 6.39935 13.8322 6.32903 13.7619C6.2587 13.6915 6.21919 13.5962 6.21919 13.4967V11.8011H3.86335V19.3334H11.3957V11.8011H9.03985ZM6.96919 11.8011V13.1217H8.28985V11.8011H6.96919ZM2.92978 21.6115V23.2063H4.30749V21.6114L2.92978 21.6115Z" fill="white"/>
</svg>
