<svg width="80" height="79" viewBox="0 0 80 79" fill="none" xmlns="http://www.w3.org/2000/svg">
<path d="M21.9591 61.7918C21.6296 61.6284 21.4648 61.6284 21.1352 61.7918C20.8057 61.9551 20.6409 62.2818 20.6409 62.4452V65.5488C20.6409 65.8755 20.8057 66.0389 21.1352 66.2022L31.6814 72.2462C31.8462 72.2462 32.0109 72.4096 32.1757 72.4096C32.6701 72.4096 32.9996 72.0829 32.9996 71.5928V68.3258C32.9996 67.9991 32.8349 67.8357 32.5053 67.6724L21.9591 61.7918ZM31.187 70.286L22.2887 65.2221V63.9153L31.187 68.9792V70.286Z" fill="#FFB339"/>
<path d="M6.14383 52.6436C5.81426 52.4803 5.64948 52.4803 5.31991 52.6436C4.99035 52.807 4.82556 53.1337 4.82556 53.297V56.4007C4.82556 56.7274 4.99035 56.8908 5.31991 57.0541L15.8661 63.0981C16.3604 63.4248 17.1843 62.9347 17.1843 62.4447V59.341C17.1843 59.0143 17.0196 58.851 16.69 58.6876L6.14383 52.6436ZM15.3717 61.1379L6.4734 56.074V54.7672L15.3717 59.8311V61.1379Z" fill="#FFB339"/>
<path d="M21.1352 55.7474L31.6814 61.7914C31.8462 61.7914 32.0109 61.9548 32.1757 61.9548C32.6701 61.9548 32.9996 61.6281 32.9996 61.138V57.871C32.9996 57.5443 32.8349 57.3809 32.5053 57.2176L21.9591 51.1736C21.6296 51.0102 21.4648 51.0102 21.1352 51.1736C20.8057 51.337 20.6409 51.6637 20.6409 51.827V54.9307C20.6409 55.2574 20.8057 55.5841 21.1352 55.7474ZM22.2887 53.2972L31.187 58.361V59.6678L22.2887 54.604V53.2972Z" fill="#FFB339"/>
<path d="M5.31991 46.7633L15.8661 52.8073C16.3604 53.134 17.1843 52.6439 17.1843 52.1538V49.0502C17.1843 48.7235 17.0196 48.5601 16.69 48.3968L6.14383 42.3528C5.81426 42.1894 5.64948 42.1894 5.31991 42.3528C4.99035 42.5161 4.82556 42.8429 4.82556 43.0062V46.1099C4.99035 46.2732 5.15513 46.5999 5.31991 46.7633ZM6.63818 44.313L15.5365 49.3769V50.6837L6.63818 45.6198V44.313Z" fill="#FFB339"/>
<path d="M21.1352 45.1296L31.6814 51.1736C31.8462 51.1736 32.0109 51.3369 32.1757 51.3369C32.6701 51.3369 32.9996 51.0102 32.9996 50.5202V47.4165C32.9996 47.0898 32.8349 46.9265 32.5053 46.7631L21.9591 40.7191C21.6296 40.5558 21.4648 40.5558 21.1352 40.7191C20.8057 40.8825 20.6409 41.2092 20.6409 41.3725V44.4762C20.6409 44.8029 20.8057 44.9663 21.1352 45.1296ZM22.2887 42.6793L31.187 47.7432V49.05L22.2887 43.9861V42.6793Z" fill="#FFB339"/>
<path d="M78.9713 21.444C57.2199 8.866 65.6238 13.7665 43.7076 1.02516C43.378 0.861811 43.2133 0.861811 42.8837 1.02516L0.863858 25.2011C0.53429 25.3644 0.369507 25.6911 0.369507 25.8545V57.7079C0.369507 58.0346 0.534291 58.1979 0.699074 58.3613C10.5861 64.0786 37.1163 79.2702 36.1276 78.7801C36.4571 78.9435 36.6219 78.9435 36.9515 78.7801L45.1907 74.043C45.5202 73.8796 45.685 73.5529 45.685 73.3896V66.6922L47.3329 65.7121C47.4976 65.8754 53.4299 69.3058 53.1003 68.9791C53.4299 69.1424 53.5946 69.1424 53.9242 68.9791L62.1634 64.2419C62.493 64.0786 62.6577 63.7519 62.6577 63.5885V56.8911L64.3056 55.911L70.073 59.178C70.4026 59.3414 70.5674 59.3414 70.8969 59.178L79.1361 54.4409C79.4657 54.2775 79.6305 53.9508 79.6305 53.7875C79.6305 50.3571 79.6305 25.5278 79.6305 21.9341C79.4657 21.9341 79.1361 21.6074 78.9713 21.444ZM77.8178 42.843C77.6531 43.0063 70.7321 46.9267 71.2265 46.6V40.8828C71.2265 40.3927 70.5674 39.9026 70.073 40.2294C69.9082 40.3927 61.1747 45.2932 61.3395 45.1299C61.0099 45.2932 60.8451 45.6199 60.8451 45.7833V52.3173L54.2538 56.0744C54.2538 55.911 54.2538 50.0304 54.2538 50.3571C54.2538 49.867 53.5946 49.377 52.9355 49.7037L44.3668 54.6042C44.0372 54.7676 43.8724 55.0943 43.8724 55.2576V61.7917C43.7076 61.955 37.1163 65.7121 37.2811 65.5487V56.8911C38.2698 56.4011 68.59 38.9225 77.6531 33.6953L77.8178 42.843ZM45.685 61.3016V56.0744L47.3329 55.0943L51.782 57.7079L45.685 61.3016ZM17.6718 17.3602L51.4524 36.799L44.0372 41.0461L10.2565 21.6074L17.6718 17.3602ZM26.7349 12.133L60.5156 31.5718L52.9355 35.8189L19.3196 16.3801L26.7349 12.133ZM35.9628 6.90579L69.5787 26.3445L62.1634 30.5917L28.3827 11.1529L35.9628 6.90579ZM62.493 41.0461V35.8189L64.1408 34.8388L68.59 37.4524L62.493 41.0461ZM69.5787 31.8985V36.1456L65.9534 34.022L69.5787 31.8985ZM77.8178 32.2252L71.2265 35.9822V30.265C71.2265 29.7749 70.7321 29.2848 70.073 29.6116C69.9082 29.7749 61.1747 34.6754 61.3395 34.5121C61.0099 34.6754 60.8451 35.0021 60.8451 35.1655V41.6995C60.6803 41.8629 53.7594 45.7833 54.2538 45.4566V39.7393C54.2538 39.2492 53.5946 38.7592 53.1003 39.0859C52.9355 39.2492 44.202 44.1498 44.3668 43.9864C44.0372 44.1498 43.8724 44.4765 43.8724 44.6398V51.1739L37.2811 54.9309V46.2733C43.5428 43.1697 72.0504 26.8346 77.8178 23.5676V32.2252ZM45.685 50.6838V45.4566L47.3329 44.4765L51.782 47.0901L45.685 50.6838ZM52.6059 41.5362V45.7833L48.9807 43.6597L52.6059 41.5362ZM35.798 46.7634V55.421L2.01734 35.9822V27.3246L35.798 46.7634ZM35.798 57.2178V65.8754C-10.5062 39.4126 5.4778 48.5602 2.01734 46.6V37.9424L35.798 57.2178ZM52.6059 56.4011L48.9807 54.2775L52.6059 52.154C52.6059 52.3173 52.6059 56.5644 52.6059 56.4011ZM62.493 51.6639V46.4367L64.1408 45.4566L68.59 48.0702L62.493 51.6639ZM69.5787 42.3529V46.6L65.9534 44.4765L69.5787 42.3529ZM43.2133 2.65867L76.9939 22.0974L71.2265 25.3644L37.6106 5.92569L43.2133 2.65867ZM8.60869 22.5875L42.3893 42.0262L36.6219 45.2932L2.84126 25.8545L8.60869 22.5875ZM2.01734 57.2178V48.5602C48.1568 75.1864 32.3375 66.0388 35.6332 67.999V76.6566L2.01734 57.2178ZM48.9807 64.732L52.6059 62.6084C52.6059 62.7718 52.6059 67.1822 52.6059 66.8555L48.9807 64.732ZM65.7886 55.0943L69.5787 52.9707V57.2178L65.7886 55.0943ZM71.2265 57.2178V51.5006C71.2265 51.0105 70.5674 50.5205 70.073 50.8472L61.5043 55.7477C61.1747 55.911 61.0099 56.2377 61.0099 56.4011V63.0985L54.4186 66.8555C54.4186 66.6922 54.4186 60.8116 54.4186 61.1383C54.4186 60.4848 53.5946 60.1581 53.1003 60.4848L44.5315 65.3854C44.202 65.5487 44.0372 65.8754 44.0372 66.0388V72.5728L37.4458 76.3299V67.6723C37.7754 67.6723 77.9826 44.6398 77.8178 44.8032V53.4608L71.2265 57.2178Z" fill="#FFB339"/>
<path d="M15.8661 42.1893C16.3604 42.516 17.1843 42.0259 17.1843 41.5359V38.4322C17.1843 38.1055 17.0196 37.9422 16.69 37.7788L6.14383 31.7348C5.81426 31.5715 5.64948 31.5715 5.31991 31.7348C4.99035 31.8982 4.82556 32.2249 4.82556 32.3882V35.4919C4.82556 35.8186 4.99035 35.9819 5.31991 36.1453L15.8661 42.1893ZM6.63818 33.695L15.5365 38.7589V40.0657L6.63818 35.0018V33.695Z" fill="#FFB339"/>
</svg>
