<svg width="15" height="17" viewBox="0 0 15 17" fill="none" xmlns="http://www.w3.org/2000/svg">
<path d="M13.3 0.950195C14.0813 0.950195 14.8 1.66895 14.8 2.4502V15.4502C14.8 16.2627 14.0813 16.9502 13.3 16.9502H2.30005C1.48755 16.9502 0.800049 16.2627 0.800049 15.4502V2.4502C0.800049 1.66895 1.48755 0.950195 2.30005 0.950195H13.3ZM4.80005 14.5752V13.3564C4.80005 13.1689 4.5813 12.9502 4.3938 12.9502H3.17505C2.98755 12.9502 2.80005 13.1689 2.80005 13.3564V14.5752C2.80005 14.7627 2.98755 14.9502 3.17505 14.9502H4.3938C4.5813 14.9502 4.80005 14.7627 4.80005 14.5752ZM4.80005 10.5752V9.35645C4.80005 9.16895 4.5813 8.9502 4.3938 8.9502H3.17505C2.98755 8.9502 2.80005 9.16895 2.80005 9.35645V10.5752C2.80005 10.7627 2.98755 10.9502 3.17505 10.9502H4.3938C4.5813 10.9502 4.80005 10.7627 4.80005 10.5752ZM8.80005 14.5752V13.3564C8.80005 13.1689 8.5813 12.9502 8.3938 12.9502H7.17505C6.98755 12.9502 6.80005 13.1689 6.80005 13.3564V14.5752C6.80005 14.7627 6.98755 14.9502 7.17505 14.9502H8.3938C8.5813 14.9502 8.80005 14.7627 8.80005 14.5752ZM8.80005 10.5752V9.35645C8.80005 9.16895 8.5813 8.9502 8.3938 8.9502H7.17505C6.98755 8.9502 6.80005 9.16895 6.80005 9.35645V10.5752C6.80005 10.7627 6.98755 10.9502 7.17505 10.9502H8.3938C8.5813 10.9502 8.80005 10.7627 8.80005 10.5752ZM12.8 14.5752V9.35645C12.8 9.16895 12.5813 8.9502 12.3938 8.9502H11.175C10.9875 8.9502 10.8 9.16895 10.8 9.35645V14.5752C10.8 14.7627 10.9875 14.9502 11.175 14.9502H12.3938C12.5813 14.9502 12.8 14.7627 12.8 14.5752ZM12.8 6.5752V3.35645C12.8 3.16895 12.5813 2.9502 12.3938 2.9502H3.17505C2.98755 2.9502 2.80005 3.16895 2.80005 3.35645V6.5752C2.80005 6.7627 2.98755 6.9502 3.17505 6.9502H12.3938C12.5813 6.9502 12.8 6.7627 12.8 6.5752Z" fill="#1E40AF"/>
</svg>
