<svg width="20" height="20" viewBox="0 0 20 20" fill="none" xmlns="http://www.w3.org/2000/svg">
<path d="M19.4875 10.1501C19.4875 15.5017 15.1125 19.8376 9.80005 19.8376C4.44849 19.8376 0.112549 15.5017 0.112549 10.1501C0.112549 4.83765 4.44849 0.462646 9.80005 0.462646C15.1125 0.462646 19.4875 4.83765 19.4875 10.1501ZM8.66724 15.3064L15.8547 8.1189C16.0891 7.88452 16.0891 7.45483 15.8547 7.22046L14.9563 6.36108C14.7219 6.08765 14.3313 6.08765 14.0969 6.36108L8.23755 12.2205L5.46411 9.48608C5.22974 9.21265 4.83911 9.21265 4.60474 9.48608L3.7063 10.3455C3.47192 10.5798 3.47192 11.0095 3.7063 11.2439L7.7688 15.3064C8.00317 15.5408 8.43286 15.5408 8.66724 15.3064Z" fill="#1D5BD6"/>
</svg>
