<svg width="24" height="25" viewBox="0 0 24 25" fill="none" xmlns="http://www.w3.org/2000/svg">
<path d="M22.0001 16.9377V19.9377C22.0012 20.2162 21.9441 20.4918 21.8326 20.747C21.721 21.0022 21.5574 21.2313 21.3521 21.4195C21.1469 21.6078 20.9046 21.7512 20.6408 21.8404C20.377 21.9296 20.0974 21.9627 19.8201 21.9377C16.7429 21.6033 13.7871 20.5518 11.1901 18.8677C8.77388 17.3323 6.72539 15.2838 5.19006 12.8677C3.50003 10.2589 2.4483 7.28867 2.12006 4.19767C2.09507 3.92114 2.12793 3.64244 2.21656 3.3793C2.30518 3.11616 2.44763 2.87436 2.63482 2.6693C2.82202 2.46423 3.04986 2.30038 3.30385 2.1882C3.55783 2.07601 3.8324 2.01794 4.11006 2.01768H7.11006C7.59536 2.0129 8.06585 2.18475 8.43382 2.50121C8.80179 2.81766 9.04213 3.25712 9.11005 3.73768C9.23668 4.69774 9.47151 5.6404 9.81006 6.54768C9.9446 6.9056 9.97372 7.29459 9.89396 7.66856C9.81421 8.04252 9.62892 8.38579 9.36005 8.65768L8.09006 9.92767C9.51361 12.4312 11.5865 14.5041 14.0901 15.9277L15.3601 14.6577C15.6319 14.3888 15.9752 14.2035 16.3492 14.1238C16.7231 14.044 17.1121 14.0731 17.4701 14.2077C18.3773 14.5462 19.32 14.7811 20.2801 14.9077C20.7658 14.9762 21.2095 15.2209 21.5266 15.5952C21.8437 15.9695 22.0122 16.4473 22.0001 16.9377Z" stroke="white" stroke-width="2" stroke-linecap="round" stroke-linejoin="round"/>
</svg>
