<svg width="90" height="51" viewBox="0 0 90 51" fill="none" xmlns="http://www.w3.org/2000/svg">
<g filter="url(#filter0_g_1_765)">
<rect x="0.587646" y="13.8792" width="86.4251" height="30.6421" rx="15.3211" transform="rotate(-6.44399 0.587646 13.8792)" fill="#1D5BD6"/>
<rect x="1.1406" y="14.3199" width="85.4251" height="29.6421" rx="14.8211" transform="rotate(-6.44399 1.1406 14.3199)" stroke="white"/>
</g>
<path d="M18.7421 24.1164L18.7443 24.1362C18.5041 24.3247 17.6972 27.1342 17.478 27.6825C16.9474 29.0313 16.3991 30.4023 16.0962 31.8056C16.0286 32.0952 15.9846 32.9456 15.7819 33.1096C15.6541 33.2248 14.9433 33.3462 14.7446 33.3688C14.2677 33.4232 14.1051 32.1736 14.0688 31.8556C13.96 30.9018 13.9728 29.9543 13.8663 29.0203C13.7145 27.689 13.4434 26.3712 13.2916 25.0398C13.235 24.543 13.1959 24.0241 13.1393 23.5273C13.0804 23.0107 12.9244 22.5252 12.8654 22.0086C12.8201 21.6111 13.7224 21.2265 14.0403 21.1902C14.2986 21.1607 14.3394 21.5184 14.3598 21.6973C14.6226 24.0023 14.8259 26.3142 15.091 28.6391C15.134 29.0167 15.1992 29.4118 15.3217 29.7803C15.779 29.0237 16.6755 26.6468 16.9181 25.7737C17.1539 24.8409 17.5578 23.9696 17.7937 23.0369C17.9249 22.5992 18.0229 21.34 18.2739 21.0698C18.4897 20.8439 18.7787 20.7304 19.0768 20.6964C19.4941 20.6488 19.6626 20.8913 19.7057 21.2689C19.7578 21.7259 19.6708 22.1988 19.7252 22.6757C20.0401 25.4378 20.4721 28.1664 20.787 30.9285C20.8595 31.5644 20.9122 32.2026 20.9052 32.8475C20.9005 33.5123 20.8846 33.3732 20.293 33.4809C20.1363 33.5189 19.9995 33.5547 19.8604 33.5705C19.5027 33.6113 19.4143 32.8363 19.3871 32.5979C19.0767 29.8755 19.1262 27.1323 18.8181 24.4298C18.8045 24.3105 18.7932 24.2112 18.7421 24.1164ZM31.708 32.3605C28.3696 32.7411 26.9206 28.8603 26.617 26.1976C26.2862 23.2964 27.0739 19.9657 30.4719 19.5782C33.9494 19.1817 35.1514 23.1913 35.4595 25.8938C35.7745 28.6559 34.947 31.9911 31.708 32.3605ZM30.6396 21.0487C28.1358 21.3342 27.8264 23.5636 28.0643 25.6501C28.1119 26.0674 28.1617 26.5045 28.2667 26.8952C28.5468 28.2924 29.7939 31.1093 31.5426 30.9099C33.8079 30.6516 34.1029 27.2362 33.9035 25.4875C33.7199 23.8779 32.7261 20.8108 30.6396 21.0487ZM39.0455 32.5504C37.3242 32.2837 36.8236 29.4824 36.6627 28.0715C36.3863 25.6472 37.2296 24.7459 39.5943 24.4763C39.793 24.4536 40.0139 24.4485 40.2171 24.4656C39.4754 23.0807 35.7555 23.6458 35.402 20.5459C35.3363 19.9696 35.5976 19.4366 35.9298 18.9961C36.9794 17.6083 39.4139 17.069 41.0633 16.8809L41.4033 16.8623C41.4476 16.8975 41.4567 16.977 41.4635 17.0366C41.5088 17.434 41.487 18.3021 41.3932 18.7154C41.3955 18.7352 41.3671 18.8391 41.3273 18.8436C40.9299 18.889 40.5035 18.8571 40.0862 18.9046C39.3709 18.9862 37.2474 19.4296 37.363 20.4431C37.5171 21.7943 40.5999 21.6441 41.5065 24.2985C41.8338 25.2274 42.009 26.234 42.1177 27.1878C42.367 29.3737 42.3708 32.2316 39.569 32.5511C39.3901 32.5715 39.209 32.572 39.0455 32.5504ZM39.7928 32.0425L39.8127 32.0402L39.8104 32.0203L39.7928 32.0425ZM38.4804 26.5357C38.4275 27.3067 38.4386 28.1106 38.527 28.8856C38.6063 29.5811 38.6973 31.2616 39.6249 31.2766C39.8146 31.1744 39.9821 31.0547 40.1252 30.8974C40.4808 30.1322 40.5125 28.1157 40.4151 27.2612C40.3562 26.7445 40.2377 26.2347 40.0794 25.7294C39.5099 25.8547 38.9143 26.1038 38.4804 26.5357ZM42.4697 16.8011C43.9469 16.693 46.0153 16.2961 47.1056 17.5607C47.3604 17.8538 47.5227 18.2177 47.568 18.6151C47.6836 19.6286 47.0111 20.7923 46.2354 21.4041C45.8476 21.71 45.139 21.8512 44.8857 22.1015C44.6677 22.3075 44.6619 22.6101 44.6936 22.8883C44.7367 23.2659 44.8592 23.6344 44.9 23.992C45.0835 25.6016 45.4238 27.1732 45.7243 28.7493C45.8677 29.4777 46.1259 30.1528 46.2097 30.8881C46.28 31.5041 46.2629 31.7073 45.627 31.7798C44.5937 31.8976 44.5444 31.6416 44.4379 30.7076C44.1456 28.1442 43.8533 25.5809 43.4219 23.0333C43.1588 21.4328 42.7567 19.8482 42.5709 18.2187C42.5165 17.7418 42.4843 17.2825 42.4697 16.8011ZM45.9678 19.7638C46.0093 19.5981 46.031 19.4346 46.0151 19.2955C45.9313 18.5602 45.0174 17.9599 44.3219 18.0392C44.0238 18.0732 44.0311 18.3139 44.0583 18.5524C44.0878 18.8107 44.1547 19.0446 44.1643 19.3052C44.1807 19.6254 44.1374 19.9524 44.1759 20.2902C44.2099 20.5883 44.3257 20.8972 44.6834 20.8564C45.1205 20.8065 45.8343 20.1816 45.9678 19.7638ZM56.5009 31.5866C56.2788 31.934 55.8042 32.0083 55.4266 32.0513C52.744 32.3572 50.7334 31.3183 50.4093 28.4767C50.2621 27.1851 50.7643 25.9402 52.1751 25.7793C52.9898 25.6864 53.8504 26.172 54.1683 26.1358C54.2081 26.1313 54.2478 26.1267 54.2654 26.1046C54.0348 24.2588 53.3052 17.8603 52.3211 16.644C52.0617 16.3112 51.6723 16.0738 51.2351 16.1236C50.2813 16.2324 49.8206 17.3115 49.918 18.166C50.0041 18.9211 50.0223 19.0801 49.2473 19.1685C48.8896 19.2092 48.0465 19.406 47.9853 18.8695C47.9287 18.3727 48.1758 17.5394 48.3644 17.075C48.849 15.8522 50.0688 14.5456 51.4598 14.387C51.7778 14.3508 52.1025 14.3741 52.3966 14.4815C54.1144 15.0707 54.7086 18.1633 55.0465 19.715C55.4492 21.4807 55.7127 23.2623 55.9167 25.0507C56.1161 26.7994 56.2536 28.535 56.453 30.2837C56.4983 30.6811 56.6566 31.1864 56.5009 31.5866ZM53.2529 27.2869C52.5375 27.3685 52.1394 27.9373 52.2209 28.6526C52.3569 29.8449 53.3178 30.6814 54.5499 30.5409C54.9473 30.4956 54.9417 30.0937 54.9055 29.7757C54.8488 29.2789 54.6332 28.8003 54.5765 28.3035C54.4655 27.3298 54.2067 27.1782 53.2529 27.2869ZM57.3931 15.4013C57.1524 15.4087 56.3905 15.4351 56.2333 15.292C56.2066 15.2347 56.1975 15.1552 56.1885 15.0757C56.0865 14.1815 56.0218 13.9675 56.9955 13.8564C57.5917 13.7885 58.177 13.8022 58.7532 13.7365C59.1904 13.6867 59.6185 13.5573 60.0557 13.5075C60.3736 13.4712 60.8483 13.397 60.8959 13.8143C60.9276 14.0925 60.999 14.3661 61.0308 14.6443C61.0987 15.2405 59.4871 14.6996 59.5936 15.6335C59.6185 15.8521 59.6633 16.0684 59.7081 16.2847C60.0703 18.5785 60.3354 20.9034 60.6181 23.2062C60.8923 25.6106 61.1466 28.0173 61.5576 30.386C61.5956 30.5427 61.6114 30.6818 61.6296 30.8408C61.65 31.0196 61.6772 31.2581 61.4387 31.2853C61.2201 31.3102 60.9879 31.2159 60.7603 31.1613C60.305 31.0522 60.1971 31.1652 60.1291 30.569C60.0951 30.2709 60.123 29.986 60.089 29.6879C59.5747 25.1771 58.7623 20.7003 58.2502 16.2094C58.1618 15.4345 58.1641 15.4543 57.3931 15.4013ZM68.5431 18.5987C68.8615 21.0383 69.1203 23.4848 69.4189 25.9267C69.4909 26.3814 69.6424 26.8271 69.6945 27.2842C69.7126 27.4431 69.7091 27.7656 69.4905 27.7905C69.3713 27.8041 69.2056 27.7626 69.0841 27.7564C68.3926 27.6943 68.1707 27.3372 68.0959 26.6814C68.0325 26.125 67.9228 24.1044 67.6192 23.7364C67.4086 23.4786 67.1855 23.4638 66.8875 23.4978C66.3509 23.559 65.8292 23.3971 65.3126 23.456C64.9151 23.5013 64.9718 23.9981 65.0058 24.2961C65.0556 24.7333 65.1674 25.1835 65.2393 25.6383C65.3068 26.0533 65.4713 26.4372 65.5189 26.8545C65.5756 27.3513 64.8846 27.4703 64.5269 27.5111C64.1494 27.5541 63.7474 27.5597 63.6953 27.1027C63.6523 26.7251 63.7483 26.3317 63.7053 25.9542C63.6169 25.1792 63.4269 24.3957 63.3385 23.6207C63.1142 21.6534 63.0312 19.6902 62.8092 17.7428C62.7457 17.1864 62.625 16.6567 62.5615 16.1003C62.5366 15.8817 62.565 15.7778 62.8034 15.7506C63.2009 15.7053 64.2405 15.466 64.3039 16.0224C64.3447 16.3801 64.2441 16.7337 64.2628 17.0738C64.2701 17.3145 64.2973 17.553 64.3245 17.7914C64.4242 18.6658 64.5835 19.5333 64.6633 20.4099C64.7063 20.7875 64.6103 21.1809 64.6533 21.5584C64.7009 21.9757 64.9927 22.0632 65.3748 22.0599C65.8807 22.0828 66.4041 22.0835 66.9009 22.0268C67.0002 22.0155 67.1592 21.9974 67.2342 21.9486C67.492 21.738 67.3877 20.8239 67.356 20.5457C67.2903 19.9695 67.1627 19.3801 67.097 18.8039C67.0313 18.2276 67.0053 17.6468 66.9396 17.0705C66.8988 16.7128 66.7984 16.362 66.7599 16.0241C66.7101 15.587 66.8396 15.3105 67.3165 15.2561C67.9126 15.1882 68.1697 15.5011 68.2309 16.0376C68.3283 16.892 68.4258 17.7465 68.5431 18.5987ZM75.181 27.4034C71.8426 27.784 70.3936 23.9032 70.09 21.2405C69.7592 18.3393 70.5469 15.0086 73.9449 14.6211C77.4223 14.2246 78.6243 18.2342 78.9325 20.9367C79.2475 23.6988 78.42 27.034 75.181 27.4034ZM74.1125 16.0916C71.6088 16.3771 71.2994 18.6065 71.5373 20.693C71.5849 21.1103 71.6347 21.5474 71.7396 21.9381C72.0197 23.3353 73.2669 26.1522 75.0156 25.9528C77.2809 25.6944 77.5758 22.279 77.3764 20.5304C77.1929 18.9208 76.199 15.8537 74.1125 16.0916Z" fill="white"/>
<defs>
<filter id="filter0_g_1_765" x="1.50898" y="5.10084" width="87.4754" height="38.3055" filterUnits="userSpaceOnUse" color-interpolation-filters="sRGB">
<feFlood flood-opacity="0" result="BackgroundImageFix"/>
<feBlend mode="normal" in="SourceGraphic" in2="BackgroundImageFix" result="shape"/>
<feTurbulence type="fractalNoise" baseFrequency="0.40000000596046448 0.40000000596046448" numOctaves="3" seed="3811" />
<feDisplacementMap in="shape" scale="1.3999999761581421" xChannelSelector="R" yChannelSelector="G" result="displacedImage" width="100%" height="100%" />
<feMerge result="effect1_texture_1_765">
<feMergeNode in="displacedImage"/>
</feMerge>
</filter>
</defs>
</svg>
