<svg width="460" height="43" viewBox="0 0 460 43" fill="none" xmlns="http://www.w3.org/2000/svg">
<g clip-path="url(#clip0_1_768)">
<path d="M21.9906 30.4889V23.7034H29.7455V30.4889H21.9906ZM26.8374 26.6114H24.8987V28.5502H26.8374V26.6114Z" fill="white"/>
<path d="M21.0549 21.7647C20.4047 20.9685 20.0519 19.981 20.0519 18.9387C20.0519 16.9902 21.3437 15.2648 23.2663 14.6457C23.8477 14.4584 24.3934 14.1902 24.8987 13.8454V11.1017H26.8374V13.8454C27.3427 14.1902 27.8884 14.4584 28.4698 14.6457C30.3924 15.2648 31.6842 16.9902 31.6842 18.9387C31.6842 19.981 31.3314 20.9685 30.6812 21.7647H21.0549Z" fill="white"/>
<path d="M4.54213 30.4889V21.7646H12.297V30.4889H4.54213ZM9.38892 26.6114H7.45021V28.5502H9.38892V26.6114Z" fill="white"/>
<path d="M14.2357 16.9999C14.2357 18.0423 13.8829 19.0298 13.2328 19.8259H3.60638C2.95626 19.0298 2.60342 18.0423 2.60342 16.9999C2.60342 15.0515 3.89525 13.3261 5.81781 12.707C6.39923 12.5197 6.94491 12.2514 7.45021 11.9067V9.16299H9.38893V11.9067C9.89422 12.2514 10.4399 12.5197 11.0213 12.707C12.9439 13.3261 14.2357 15.0515 14.2357 16.9999Z" fill="white"/>
<path d="M18.1132 18.9387C18.1132 20.6538 18.7807 22.2661 19.9937 23.4785L20.0519 23.5373V30.4889H14.2357V21.5986L14.2939 21.5398C15.5069 20.3274 16.1745 18.7151 16.1745 16.9999C16.1745 15.5278 15.6659 14.1462 14.785 13.0404H21.9906V13.0611C19.6441 14.1041 18.1132 16.3847 18.1132 18.9387ZM16.1745 28.5502H18.1132V26.6115H16.1745V28.5502Z" fill="white"/>
<path d="M12.865 11.1017L16.1744 7.79232V5.15631H18.1131V7.79232L21.4225 11.1017H12.865Z" fill="white"/>
<path d="M8.4196 34.3663H10.3583V32.4276H16.1745V34.3663H18.1132V32.4276H23.9293V34.3663H25.8681V32.4276H31.6842V38.2437H2.60345V32.4276H8.4196V34.3663Z" fill="white"/>
</g>
<path d="M48.2159 7.6091H55.8011L63.8125 27.1546H64.1534L72.1648 7.6091H79.75V36.7H73.7841V17.7654H73.5426L66.0142 36.558H61.9517L54.4233 17.6943H54.1818V36.7H48.2159V7.6091ZM92.9618 37.1261C90.7554 37.1261 88.8472 36.6574 87.2374 35.7199C85.637 34.7729 84.4012 33.4566 83.53 31.771C82.6588 30.076 82.2232 28.111 82.2232 25.8761C82.2232 23.6224 82.6588 21.6527 83.53 19.9671C84.4012 18.272 85.637 16.9557 87.2374 16.0182C88.8472 15.0712 90.7554 14.5977 92.9618 14.5977C95.1682 14.5977 97.0716 15.0712 98.672 16.0182C100.282 16.9557 101.522 18.272 102.394 19.9671C103.265 21.6527 103.7 23.6224 103.7 25.8761C103.7 28.111 103.265 30.076 102.394 31.771C101.522 33.4566 100.282 34.7729 98.672 35.7199C97.0716 36.6574 95.1682 37.1261 92.9618 37.1261ZM92.9902 32.4386C93.994 32.4386 94.8321 32.1546 95.5044 31.5864C96.1768 31.0087 96.6834 30.2227 97.0243 29.2284C97.3747 28.2341 97.5499 27.1025 97.5499 25.8335C97.5499 24.5646 97.3747 23.433 97.0243 22.4386C96.6834 21.4443 96.1768 20.6583 95.5044 20.0807C94.8321 19.503 93.994 19.2142 92.9902 19.2142C91.9769 19.2142 91.1247 19.503 90.4334 20.0807C89.7516 20.6583 89.2355 21.4443 88.8851 22.4386C88.5442 23.433 88.3737 24.5646 88.3737 25.8335C88.3737 27.1025 88.5442 28.2341 88.8851 29.2284C89.2355 30.2227 89.7516 31.0087 90.4334 31.5864C91.1247 32.1546 91.9769 32.4386 92.9902 32.4386ZM115.893 37.1261C113.658 37.1261 111.736 36.6527 110.126 35.7057C108.526 34.7493 107.295 33.4235 106.433 31.7284C105.581 30.0333 105.154 28.0826 105.154 25.8761C105.154 23.6413 105.585 21.6811 106.447 19.9955C107.318 18.3004 108.554 16.9794 110.154 16.0324C111.755 15.076 113.658 14.5977 115.865 14.5977C117.768 14.5977 119.435 14.9434 120.865 15.6347C122.295 16.326 123.426 17.2966 124.26 18.5466C125.093 19.7966 125.552 21.2644 125.637 22.95H119.927C119.766 21.861 119.34 20.985 118.649 20.3222C117.967 19.6498 117.072 19.3136 115.964 19.3136C115.027 19.3136 114.207 19.5693 113.507 20.0807C112.815 20.5826 112.276 21.3165 111.887 22.2824C111.499 23.2483 111.305 24.4178 111.305 25.7909C111.305 27.183 111.494 28.3667 111.873 29.3421C112.261 30.3174 112.806 31.0608 113.507 31.5722C114.207 32.0835 115.027 32.3392 115.964 32.3392C116.655 32.3392 117.276 32.1972 117.825 31.9131C118.384 31.629 118.843 31.2171 119.203 30.6773C119.572 30.128 119.813 29.4699 119.927 28.7029H125.637C125.543 30.3695 125.088 31.8373 124.274 33.1063C123.469 34.3657 122.356 35.3506 120.936 36.0608C119.515 36.771 117.834 37.1261 115.893 37.1261ZM127.912 36.7V14.8818H133.963V23.3477H135.667L141.605 14.8818H148.707L140.994 25.7057L148.792 36.7H141.605L136.221 28.9585H133.963V36.7H127.912ZM149.749 36.7V14.8818H159.053C161.743 14.8818 163.868 15.3932 165.431 16.4159C166.993 17.4386 167.775 18.8922 167.775 20.7767C167.775 21.9604 167.334 22.9453 166.454 23.7313C165.573 24.5172 164.351 25.0476 162.789 25.3222C164.096 25.4169 165.208 25.7152 166.127 26.2171C167.055 26.7095 167.761 27.3487 168.243 28.1347C168.736 28.9207 168.982 29.7919 168.982 30.7483C168.982 31.9888 168.651 33.0542 167.988 33.9443C167.334 34.8345 166.373 35.5163 165.104 35.9898C163.845 36.4633 162.306 36.7 160.488 36.7H149.749ZM155.388 32.1688H160.488C161.331 32.1688 161.989 31.9699 162.462 31.5722C162.945 31.165 163.187 30.611 163.187 29.9102C163.187 29.1337 162.945 28.5229 162.462 28.0779C161.989 27.6328 161.331 27.4102 160.488 27.4102H155.388V32.1688ZM155.388 23.8591H159.181C159.787 23.8591 160.303 23.7739 160.729 23.6034C161.165 23.4235 161.496 23.1678 161.724 22.8364C161.96 22.5049 162.079 22.1119 162.079 21.6574C162.079 20.9851 161.809 20.4595 161.269 20.0807C160.729 19.7019 159.991 19.5125 159.053 19.5125H155.388V23.8591ZM177.418 37.1119C176.026 37.1119 174.785 36.8705 173.696 36.3875C172.607 35.8951 171.745 35.1707 171.111 34.2142C170.486 33.2483 170.173 32.0457 170.173 30.6063C170.173 29.3941 170.396 28.3761 170.841 27.5523C171.286 26.7284 171.892 26.0655 172.659 25.5636C173.426 25.0618 174.297 24.683 175.273 24.4273C176.258 24.1716 177.29 23.9917 178.369 23.8875C179.638 23.7549 180.661 23.6318 181.438 23.5182C182.214 23.3951 182.777 23.2152 183.128 22.9784C183.478 22.7417 183.653 22.3913 183.653 21.9273V21.8421C183.653 20.9424 183.369 20.2464 182.801 19.754C182.242 19.2616 181.447 19.0154 180.415 19.0154C179.326 19.0154 178.459 19.2568 177.815 19.7398C177.171 20.2133 176.745 20.8099 176.537 21.5296L170.94 21.075C171.224 19.7493 171.783 18.6034 172.616 17.6375C173.45 16.6621 174.525 15.914 175.841 15.3932C177.167 14.8629 178.701 14.5977 180.443 14.5977C181.655 14.5977 182.815 14.7398 183.923 15.0239C185.041 15.308 186.03 15.7483 186.892 16.3449C187.763 16.9415 188.45 17.7085 188.952 18.646C189.454 19.5741 189.705 20.6868 189.705 21.9841V36.7H183.966V33.6744H183.795C183.445 34.3563 182.976 34.9576 182.389 35.4784C181.802 35.9898 181.097 36.3922 180.273 36.6858C179.449 36.9699 178.497 37.1119 177.418 37.1119ZM179.151 32.9358C180.041 32.9358 180.827 32.7606 181.509 32.4102C182.19 32.0504 182.725 31.5674 183.114 30.9614C183.502 30.3553 183.696 29.6688 183.696 28.9017V26.5864C183.507 26.7095 183.246 26.8231 182.915 26.9273C182.593 27.022 182.228 27.1119 181.821 27.1972C181.414 27.2729 181.007 27.344 180.599 27.4102C180.192 27.4671 179.823 27.5191 179.491 27.5665C178.781 27.6707 178.161 27.8364 177.631 28.0636C177.1 28.2909 176.688 28.5987 176.395 28.9869C176.101 29.3657 175.955 29.8392 175.955 30.4074C175.955 31.2313 176.253 31.861 176.849 32.2966C177.455 32.7227 178.223 32.9358 179.151 32.9358Z" fill="white"/>
<g clip-path="url(#clip1_1_768)">
<path d="M227.602 26.8812L222.133 22.0062C222.019 21.9053 221.88 21.8403 221.733 21.8189C221.585 21.7975 221.434 21.8206 221.299 21.8855C221.163 21.9504 221.048 22.0543 220.967 22.185C220.887 22.3157 220.844 22.4676 220.844 22.6229V25.0604H212.25C212.043 25.0604 211.844 25.146 211.698 25.2984C211.551 25.4507 211.469 25.6574 211.469 25.8729V29.1229C211.469 29.3384 211.551 29.5451 211.698 29.6974C211.844 29.8498 212.043 29.9354 212.25 29.9354H220.844V32.3729C220.844 32.5282 220.887 32.6801 220.967 32.8108C221.048 32.9415 221.163 33.0454 221.299 33.1103C221.434 33.1752 221.585 33.1983 221.733 33.1769C221.88 33.1555 222.019 33.0905 222.133 32.9896L227.602 28.1146C227.687 28.0383 227.756 27.9437 227.803 27.8373C227.85 27.7308 227.874 27.6151 227.874 27.4979C227.874 27.3807 227.85 27.265 227.803 27.1585C227.756 27.0521 227.687 26.9575 227.602 26.8812Z" fill="#FFB339"/>
<path d="M219.281 22.6229V19.3729C219.281 19.1574 219.199 18.9507 219.052 18.7984C218.906 18.646 218.707 18.5604 218.5 18.5604H209.906V16.1229C209.906 15.9676 209.863 15.8157 209.783 15.685C209.702 15.5543 209.587 15.4504 209.451 15.3855C209.316 15.3206 209.165 15.2975 209.017 15.3189C208.87 15.3403 208.731 15.4053 208.617 15.5062L203.148 20.3812C203.063 20.4575 202.994 20.5521 202.947 20.6585C202.9 20.765 202.876 20.8807 202.876 20.9979C202.876 21.1151 202.9 21.2308 202.947 21.3373C202.994 21.4437 203.063 21.5383 203.148 21.6146L208.617 26.4896C208.731 26.5905 208.87 26.6555 209.017 26.6769C209.165 26.6983 209.316 26.6752 209.451 26.6103C209.587 26.5454 209.702 26.4415 209.783 26.3108C209.863 26.1801 209.906 26.0282 209.906 25.8729V23.4354H218.5C218.707 23.4354 218.906 23.3498 219.052 23.1974C219.199 23.0451 219.281 22.8384 219.281 22.6229Z" fill="#FFB339"/>
</g>
<g clip-path="url(#clip2_1_768)">
<path d="M283.829 13.5541C283.772 13.451 283.663 13.393 283.548 13.393H278.15C278.041 13.393 277.932 13.451 277.875 13.5541C277.817 13.6507 277.817 13.7732 277.875 13.8762L279.173 16.1831V25.8227H276.883V19.7528H277.376C277.548 19.7528 277.696 19.6046 277.696 19.4307V18.767C277.696 17.2463 275.54 16.0542 274.881 15.7191V14.5077C274.881 14.3273 274.734 14.1855 274.562 14.1855C274.383 14.1855 274.242 14.3273 274.242 14.5077V15.7191C273.96 15.8609 273.417 16.1573 272.873 16.5697V11.8014C272.873 11.6274 272.726 11.4792 272.553 11.4792H253.615C253.436 11.4792 253.296 11.6274 253.296 11.8014V16.5632C252.752 16.1573 252.208 15.8609 251.927 15.7191V14.5077C251.927 14.3273 251.786 14.1855 251.607 14.1855C251.434 14.1855 251.287 14.3273 251.287 14.5077V15.7191C250.629 16.0478 248.473 17.2463 248.473 18.767V19.4307C248.473 19.6046 248.614 19.7528 248.793 19.7528H249.285V25.8227H246.996V16.1766L248.294 13.8698C248.352 13.7667 248.345 13.6443 248.288 13.5476C248.23 13.4445 248.128 13.3865 248.013 13.3865H242.615C242.506 13.3865 242.397 13.4445 242.34 13.5476C242.282 13.6443 242.282 13.7667 242.34 13.8698L243.632 16.1766V36.4805C243.632 36.6609 243.779 36.8027 243.951 36.8027H282.211C282.39 36.8027 282.531 36.6609 282.531 36.4805V16.1766L283.829 13.8698C283.887 13.7667 283.88 13.6443 283.829 13.5541ZM251.217 36.1583H249.081V32.711C249.081 32.3308 249.727 31.8862 250.149 31.6736C250.565 31.8862 251.217 32.3308 251.217 32.711V36.1583ZM259.838 26.0612V24.0636C259.838 23.8832 259.986 23.7415 260.158 23.7415C260.337 23.7415 260.478 23.8832 260.478 24.0636V26.0612C260.478 26.2416 260.337 26.3833 260.158 26.3833C259.986 26.3833 259.838 26.248 259.838 26.0612ZM262.761 26.0612V24.0636C262.761 23.8832 262.908 23.7415 263.081 23.7415C263.26 23.7415 263.401 23.8832 263.401 24.0636V26.0612C263.401 26.2416 263.26 26.3833 263.081 26.3833C262.908 26.3833 262.761 26.248 262.761 26.0612ZM265.684 26.0612V24.0636C265.684 23.8832 265.831 23.7415 266.004 23.7415C266.183 23.7415 266.324 23.8832 266.324 24.0636V26.0612C266.324 26.2416 266.183 26.3833 266.004 26.3833C265.831 26.3833 265.684 26.248 265.684 26.0612ZM265.537 36.1583H260.625V30.8359C260.625 29.7985 262.294 28.7739 263.081 28.3938C263.874 28.7739 265.537 29.7985 265.537 30.8359V36.1583ZM272.234 36.1583H269.541V23.0327C269.541 19.3727 263.145 16.531 263.081 16.531C263.036 16.531 262.992 16.5375 262.953 16.5568C262.697 16.6728 256.628 19.45 256.628 23.0327V36.1648H253.935V14.0116H272.234V36.1583ZM277.088 36.1583H274.952V32.711C274.952 32.3308 275.604 31.8862 276.02 31.6736C276.436 31.8862 277.088 32.3308 277.088 32.711V36.1583Z" fill="white"/>
</g>
<path d="M297.108 12.6801V7.6091H321V12.6801H312.094V36.7H306.014V12.6801H297.108ZM326.474 37.1119C325.082 37.1119 323.841 36.8705 322.752 36.3875C321.663 35.8951 320.802 35.1707 320.167 34.2142C319.542 33.2483 319.23 32.0457 319.23 30.6063C319.23 29.3941 319.452 28.3761 319.897 27.5523C320.342 26.7284 320.948 26.0655 321.715 25.5636C322.482 25.0618 323.354 24.683 324.329 24.4273C325.314 24.1716 326.346 23.9917 327.426 23.8875C328.695 23.7549 329.717 23.6318 330.494 23.5182C331.27 23.3951 331.834 23.2152 332.184 22.9784C332.534 22.7417 332.71 22.3913 332.71 21.9273V21.8421C332.71 20.9424 332.426 20.2464 331.857 19.754C331.299 19.2616 330.503 19.0154 329.471 19.0154C328.382 19.0154 327.516 19.2568 326.872 19.7398C326.228 20.2133 325.802 20.8099 325.593 21.5296L319.997 21.075C320.281 19.7493 320.839 18.6034 321.673 17.6375C322.506 16.6621 323.581 15.914 324.897 15.3932C326.223 14.8629 327.757 14.5977 329.499 14.5977C330.712 14.5977 331.872 14.7398 332.98 15.0239C334.097 15.308 335.087 15.7483 335.948 16.3449C336.82 16.9415 337.506 17.7085 338.008 18.646C338.51 19.5741 338.761 20.6868 338.761 21.9841V36.7H333.022V33.6744H332.852C332.501 34.3563 332.033 34.9576 331.445 35.4784C330.858 35.9898 330.153 36.3922 329.329 36.6858C328.505 36.9699 327.553 37.1119 326.474 37.1119ZM328.207 32.9358C329.097 32.9358 329.883 32.7606 330.565 32.4102C331.247 32.0504 331.782 31.5674 332.17 30.9614C332.558 30.3553 332.752 29.6688 332.752 28.9017V26.5864C332.563 26.7095 332.302 26.8231 331.971 26.9273C331.649 27.022 331.284 27.1119 330.877 27.1972C330.47 27.2729 330.063 27.344 329.656 27.4102C329.248 27.4671 328.879 27.5191 328.548 27.5665C327.838 27.6707 327.217 27.8364 326.687 28.0636C326.157 28.2909 325.745 28.5987 325.451 28.9869C325.158 29.3657 325.011 29.8392 325.011 30.4074C325.011 31.2313 325.309 31.861 325.906 32.2966C326.512 32.7227 327.279 32.9358 328.207 32.9358ZM341.855 14.8818H347.637V31.8989H353.787V14.8818H359.568V31.8989H365.719V14.8818H371.5V36.7H341.855V14.8818ZM374.591 36.7V14.8818H380.642V23.3477H382.347L388.285 14.8818H395.387L387.674 25.7057L395.472 36.7H388.285L382.901 28.9585H380.642V36.7H374.591ZM405.474 37.1261C403.229 37.1261 401.297 36.6716 399.678 35.7625C398.068 34.844 396.828 33.5466 395.957 31.8705C395.085 30.1849 394.65 28.1915 394.65 25.8904C394.65 23.646 395.085 21.6763 395.957 19.9813C396.828 18.2862 398.054 16.9652 399.636 16.0182C401.226 15.0712 403.092 14.5977 405.232 14.5977C406.671 14.5977 408.011 14.8297 409.252 15.2938C410.502 15.7483 411.591 16.4349 412.519 17.3534C413.457 18.272 414.186 19.4273 414.707 20.8193C415.227 22.2019 415.488 23.8212 415.488 25.6773V27.3392H397.064V23.5892H409.792C409.792 22.718 409.602 21.9462 409.224 21.2739C408.845 20.6015 408.319 20.076 407.647 19.6972C406.984 19.3089 406.212 19.1148 405.332 19.1148C404.413 19.1148 403.599 19.3279 402.888 19.754C402.188 20.1707 401.638 20.7341 401.241 21.4443C400.843 22.1451 400.639 22.9263 400.63 23.7881V27.3534C400.63 28.433 400.829 29.3657 401.226 30.1517C401.634 30.9377 402.207 31.5438 402.945 31.9699C403.684 32.396 404.56 32.6091 405.573 32.6091C406.245 32.6091 406.861 32.5144 407.42 32.325C407.978 32.1356 408.457 31.8515 408.854 31.4727C409.252 31.094 409.555 30.6299 409.763 30.0807L415.36 30.45C415.076 31.7947 414.493 32.969 413.613 33.9727C412.742 34.9671 411.615 35.7436 410.232 36.3023C408.859 36.8515 407.273 37.1261 405.474 37.1261ZM433.021 23.3761V28.1347H421.629V23.3761H433.021ZM423.618 14.8818V36.7H417.837V14.8818H423.618ZM436.814 14.8818V36.7H431.075V14.8818H436.814ZM437.717 19.6404V14.8818H457.49V19.6404H450.459V36.7H444.692V19.6404H437.717Z" fill="white"/>
<defs>
<clipPath id="clip0_1_768">
<rect width="33.0874" height="33.0874" fill="white" transform="matrix(-1 0 0 1 33.6875 5.15631)"/>
</clipPath>
<clipPath id="clip1_1_768">
<rect width="25" height="42" fill="white" transform="translate(202.688 0.700012)"/>
</clipPath>
<clipPath id="clip2_1_768">
<rect width="44" height="40" fill="white" transform="translate(239.688 1.70001)"/>
</clipPath>
</defs>
</svg>
