<svg width="272" height="85" viewBox="0 0 272 85" fill="none" xmlns="http://www.w3.org/2000/svg">
<rect x="0.5" width="271.087" height="84.7146" rx="13.5543" fill="#1F2148"/>
<path d="M108.249 51.9497C109.623 51.9498 110.836 52.2745 111.886 52.9253C112.936 53.5762 113.762 54.4667 114.363 55.5962C114.965 56.7256 115.265 58.0082 115.266 59.4438C115.266 60.8796 114.965 62.1579 114.363 63.2778C113.762 64.3977 112.936 65.2781 111.886 65.9194C110.836 66.5608 109.613 66.8813 108.22 66.8813C107.112 66.8813 106.134 66.6615 105.284 66.2212C104.435 65.7809 103.762 65.1588 103.266 64.355V72.855H100.229V52.2935H102.95L103.266 54.5054C103.724 53.8355 104.353 53.2419 105.155 52.7251C105.957 52.2082 106.989 51.9497 108.249 51.9497ZM125.941 51.9497C127.316 51.9498 128.528 52.2745 129.578 52.9253C130.628 53.5762 131.454 54.4667 132.056 55.5962C132.657 56.7256 132.958 58.0082 132.958 59.4438C132.958 60.8796 132.657 62.1579 132.056 63.2778C131.454 64.3977 130.628 65.2781 129.578 65.9194C128.528 66.5608 127.306 66.8813 125.912 66.8813C124.805 66.8813 123.826 66.6615 122.976 66.2212C122.127 65.7809 121.454 65.1588 120.958 64.355V72.855H117.922V52.2935H120.642L120.958 54.5054C121.416 53.8355 122.046 53.2419 122.848 52.7251C123.649 52.2082 124.681 51.9497 125.941 51.9497ZM148.639 46.0913C149.937 46.0913 151.078 46.3305 152.061 46.8091C153.045 47.2877 153.812 47.9533 154.366 48.8052C154.92 49.657 155.206 50.6474 155.225 51.7769H152.018C152.018 51.2601 151.884 50.7673 151.617 50.2983C151.35 49.8294 150.959 49.4415 150.443 49.1353C149.928 48.829 149.297 48.6753 148.553 48.6753C147.598 48.6562 146.811 48.8964 146.19 49.394C145.57 49.8918 145.26 50.5809 145.26 51.4614C145.26 52.2462 145.489 52.8489 145.947 53.27C146.405 53.6912 147.035 54.0413 147.837 54.3188C148.639 54.5964 149.555 54.9171 150.586 55.2808C151.579 55.6062 152.467 55.9981 153.25 56.4575C154.033 56.917 154.658 57.5205 155.126 58.2671C155.593 59.0136 155.827 59.9614 155.827 61.1099C155.827 62.1244 155.569 63.067 155.054 63.938C154.538 64.809 153.765 65.5174 152.734 66.063C151.703 66.6085 150.434 66.8813 148.926 66.8813C147.456 66.8813 146.167 66.6228 145.059 66.106C143.952 65.5891 143.088 64.8522 142.468 63.895C141.847 62.9378 141.527 61.7989 141.508 60.478H144.716C144.735 61.5499 145.107 62.459 145.832 63.2056C146.557 63.9521 147.579 64.3256 148.896 64.3257C150.061 64.3257 150.973 64.0437 151.632 63.479C152.29 62.9143 152.62 62.1915 152.62 61.311C152.62 60.6027 152.462 60.0277 152.147 59.5874C151.832 59.1471 151.402 58.7837 150.858 58.4966C150.314 58.2094 149.689 57.9509 148.982 57.7212C148.276 57.4915 147.532 57.2421 146.749 56.9741C145.202 56.4573 144.043 55.7875 143.269 54.9644C142.496 54.1412 142.109 53.0593 142.109 51.7192C142.09 50.5901 142.352 49.6044 142.896 48.7622C143.44 47.9199 144.204 47.2635 145.187 46.7944C146.171 46.3254 147.321 46.0913 148.639 46.0913ZM175.633 51.9497C176.988 51.9498 178.205 52.2602 179.284 52.8823C180.363 53.5045 181.222 54.3758 181.861 55.4956C182.501 56.6155 182.82 57.9223 182.82 59.4155C182.82 60.9087 182.501 62.2155 181.861 63.3354C181.222 64.4553 180.358 65.3266 179.269 65.9487C178.181 66.5708 176.959 66.8813 175.603 66.8813C174.248 66.8813 173.031 66.5709 171.952 65.9487C170.873 65.3266 170.019 64.4554 169.389 63.3354C168.759 62.2155 168.444 60.9087 168.444 59.4155C168.444 57.9223 168.764 56.6155 169.403 55.4956C170.043 54.3757 170.907 53.5045 171.995 52.8823C173.083 52.2601 174.296 51.9497 175.633 51.9497ZM201.996 51.9497C203.39 51.9497 204.602 52.2603 205.633 52.8823C206.664 53.5045 207.466 54.3329 208.039 55.3667C208.612 56.4004 208.898 57.5394 208.898 58.7837C208.898 58.9751 208.893 59.1808 208.884 59.4009C208.874 59.621 208.86 59.8653 208.841 60.1333H197.786C197.881 61.5117 198.335 62.5599 199.146 63.2778C199.958 63.9957 200.898 64.355 201.968 64.355C202.827 64.3549 203.548 64.1585 204.13 63.7661C204.712 63.3737 205.146 62.8423 205.432 62.1724H208.469C208.087 63.5124 207.327 64.632 206.191 65.5317C205.055 66.4314 203.648 66.8813 201.968 66.8813C200.574 66.8813 199.337 66.5708 198.259 65.9487C197.18 65.3266 196.335 64.4595 195.724 63.3491C195.114 62.2389 194.808 60.9471 194.807 59.4731C194.807 57.9799 195.108 56.6681 195.71 55.5386C196.311 54.4092 197.152 53.5287 198.23 52.897C199.309 52.2653 200.564 51.9497 201.996 51.9497ZM90.8427 46.436L98.1737 66.5366H94.9667L93.2479 61.6265H85.0575L83.3387 66.5366H80.1317L87.5204 46.436H90.8427ZM162.837 48.6753V52.2935H166.847V54.8501H162.837V61.8853C162.837 62.67 163.005 63.2106 163.339 63.5073C163.673 63.804 164.25 63.9526 165.071 63.9526H166.703V66.5366H164.355C162.962 66.5366 161.854 66.1975 161.033 65.5181C160.212 64.8385 159.802 63.6272 159.802 61.8853V54.8501H157.367V52.2935H159.802L160.174 48.6753H162.837ZM193.754 55.1372H192.924C192.084 55.1372 191.334 55.2756 190.676 55.5532C190.017 55.8308 189.492 56.3 189.1 56.9604C188.709 57.6209 188.514 58.5349 188.514 59.7026V66.5366H185.477V52.2935H188.198L188.456 54.9937C188.952 54.0557 189.644 53.3136 190.532 52.7681C191.42 52.2225 192.494 51.9498 193.754 51.9497V55.1372ZM175.633 54.562C174.907 54.562 174.234 54.7442 173.613 55.1079C172.993 55.4716 172.492 56.0124 172.11 56.73C171.728 57.4479 171.537 58.3435 171.537 59.4155C171.537 60.4875 171.728 61.3822 172.11 62.1001C172.492 62.8179 172.988 63.3594 173.599 63.7231C174.209 64.0868 174.878 64.268 175.603 64.2681C176.329 64.2681 177.002 64.0869 177.623 63.7231C178.243 63.3594 178.744 62.818 179.126 62.1001C179.508 61.3822 179.699 60.4875 179.699 59.4155C179.699 58.3435 179.513 57.4479 179.141 56.73C178.768 56.0122 178.272 55.4716 177.651 55.1079C177.031 54.7443 176.358 54.5621 175.633 54.562ZM107.704 54.5913C106.406 54.5914 105.342 55.0414 104.512 55.9409C103.681 56.8407 103.266 57.9989 103.266 59.4155C103.266 60.8513 103.681 62.0146 104.512 62.9048C105.342 63.7947 106.406 64.2396 107.704 64.2397C109.002 64.2397 110.072 63.7949 110.912 62.9048C111.752 62.0146 112.172 60.8513 112.172 59.4155C112.172 58.4776 111.981 57.6449 111.599 56.9175C111.218 56.19 110.693 55.6201 110.024 55.2085C109.356 54.7969 108.582 54.5913 107.704 54.5913ZM125.397 54.5913C124.099 54.5913 123.034 55.0413 122.204 55.9409C121.373 56.8407 120.958 57.9989 120.958 59.4155C120.958 60.8513 121.373 62.0146 122.204 62.9048C123.034 63.7948 124.099 64.2397 125.397 64.2397C126.695 64.2396 127.764 63.7948 128.604 62.9048C129.444 62.0146 129.864 60.8513 129.864 59.4155C129.864 58.4776 129.674 57.6449 129.292 56.9175C128.91 56.19 128.385 55.6201 127.717 55.2085C127.049 54.797 126.275 54.5914 125.397 54.5913ZM85.9169 59.2144H92.3895L89.1532 50.0542L85.9169 59.2144ZM201.968 54.4478C200.956 54.4478 200.058 54.7491 199.275 55.3521C198.492 55.9551 198.015 56.8599 197.844 58.0659H205.862C205.805 56.9557 205.414 56.0752 204.688 55.4243C203.963 54.7735 203.056 54.4478 201.968 54.4478ZM87.8622 17.1187C89.585 17.1187 91.0198 17.5362 92.1659 18.3706C93.3119 19.205 94.0527 20.354 94.3885 21.8179H92.2645C92.0601 20.8956 91.5749 20.1632 90.8085 19.6216C90.042 19.0799 89.0594 18.8101 87.8622 18.8101C86.7381 18.8101 85.7597 19.0619 84.9276 19.5669C84.0955 20.0719 83.45 20.7932 82.9901 21.73C82.5302 22.6669 82.2997 23.7874 82.2997 25.0903C82.2997 26.393 82.5259 27.5129 82.9784 28.4497C83.431 29.3866 84.0592 30.1077 84.8622 30.6128C85.6652 31.1178 86.6001 31.3706 87.6659 31.3706C89.3009 31.3705 90.5349 30.8909 91.3671 29.9321C92.1991 28.9733 92.6731 27.6593 92.7899 25.9907H88.3661V24.5405H94.6737V32.7534H92.9872L92.8339 30.228C92.2791 31.121 91.5998 31.8094 90.7968 32.2925C89.9938 32.7755 88.9279 33.0171 87.5995 33.0171C86.1688 33.017 84.9132 32.6841 83.8329 32.0181C82.7525 31.352 81.9129 30.4221 81.3143 29.229C80.7158 28.036 80.4169 26.6565 80.4169 25.0903C80.4169 23.5241 80.7193 22.1403 81.3251 20.9399C81.931 19.7395 82.7931 18.8018 83.91 18.1284C85.0267 17.4553 86.3442 17.1187 87.8622 17.1187ZM101.918 21.5981C102.969 21.5982 103.878 21.8362 104.644 22.312C105.411 22.7877 105.998 23.4133 106.407 24.189C106.816 24.9649 107.02 25.7999 107.02 26.6929C107.02 26.8537 107.017 27.0145 107.01 27.1753C107.002 27.3363 106.999 27.5201 106.999 27.7251H98.3475C98.3914 28.5594 98.5855 29.2514 98.9286 29.8003C99.2716 30.3491 99.7024 30.7624 100.221 31.0405C100.739 31.3186 101.29 31.4575 101.874 31.4575C102.633 31.4575 103.268 31.2824 103.779 30.9312C104.29 30.5798 104.663 30.1036 104.896 29.5034H106.714C106.422 30.5135 105.864 31.352 105.039 32.0181C104.214 32.6842 103.159 33.0171 101.874 33.0171C100.837 33.0171 99.9171 32.779 99.1141 32.3032C98.3113 31.8275 97.6804 31.1648 97.2206 30.3159C96.7607 29.4668 96.5302 28.4636 96.5302 27.3071C96.5302 26.1655 96.7564 25.1664 97.2089 24.3101C97.6614 23.4537 98.2932 22.7878 99.1034 22.312C99.9137 21.8362 100.852 21.5981 101.918 21.5981ZM144.944 21.5981C145.966 21.5981 146.886 21.8318 147.704 22.3003C148.521 22.7687 149.167 23.4315 149.641 24.2876C150.116 25.1439 150.353 26.1508 150.353 27.3071C150.353 28.4636 150.112 29.4703 149.631 30.3267C149.149 31.183 148.496 31.8455 147.671 32.314C146.846 32.7824 145.922 33.0171 144.9 33.0171C143.878 33.0171 142.958 32.7824 142.141 32.314C141.323 31.8455 140.677 31.1829 140.203 30.3267C139.729 29.4703 139.491 28.4636 139.491 27.3071C139.491 26.1508 139.732 25.1439 140.214 24.2876C140.696 23.4314 141.349 22.7687 142.174 22.3003C142.999 21.8319 143.922 21.5981 144.944 21.5981ZM111.527 21.8618H114.724V23.4204H111.527V29.4155C111.527 30.1036 111.666 30.5685 111.943 30.8101C112.221 31.0515 112.709 31.1723 113.41 31.1724H114.55V32.7534H112.885C111.892 32.7534 111.111 32.5118 110.542 32.0288C109.972 31.5457 109.687 30.6745 109.687 29.4155V23.4204H107.804V21.8618H109.687L109.929 19.2485H111.527V21.8618ZM123.934 32.7534H122.095V21.8618H123.934V32.7534ZM129.58 19.2485V21.8618H132.777V23.4204H129.58V29.4155C129.58 30.1034 129.719 30.5685 129.996 30.8101C130.273 31.0516 130.763 31.1724 131.464 31.1724H132.602V32.7534H130.938C129.946 32.7534 129.164 32.5119 128.595 32.0288C128.025 31.5457 127.74 30.6745 127.74 29.4155V23.4204H125.857V21.8618H127.74L127.981 19.2485H129.58ZM157.948 21.5981C159.233 21.5981 160.259 21.9897 161.025 22.7729C161.792 23.5562 162.175 24.7604 162.175 26.3853V32.7534H160.335V26.5825C160.335 24.3136 159.401 23.1792 157.532 23.1792C156.598 23.1792 155.821 23.5199 155.2 24.2007C154.58 24.8814 154.268 25.8509 154.268 27.1099V32.7534H152.43V21.8618H154.094L154.203 23.8159C154.553 23.1279 155.058 22.5862 155.715 22.1909C156.372 21.7958 157.116 21.5981 157.948 21.5981ZM144.944 23.1792C144.317 23.1792 143.732 23.3328 143.192 23.6401C142.652 23.9476 142.214 24.4091 141.878 25.0239C141.542 25.6388 141.375 26.4005 141.375 27.3081C141.375 28.2154 141.542 28.9766 141.878 29.5913C142.214 30.2062 142.649 30.6677 143.182 30.9751C143.714 31.2824 144.287 31.436 144.9 31.436C145.528 31.436 146.112 31.2824 146.652 30.9751C147.192 30.6677 147.631 30.2062 147.967 29.5913C148.302 28.9766 148.471 28.2155 148.471 27.3081C148.471 26.4005 148.306 25.6388 147.977 25.0239C147.649 24.4091 147.215 23.9475 146.675 23.6401C146.134 23.3327 145.557 23.1792 144.944 23.1792ZM101.874 23.1577C100.998 23.1577 100.221 23.4252 99.5419 23.9595C98.863 24.4938 98.4723 25.2728 98.37 26.2974H105.203C105.159 25.3167 104.823 24.5479 104.195 23.9917C103.567 23.4355 102.794 23.1577 101.874 23.1577ZM123.015 16.9429C123.365 16.9429 123.665 17.0602 123.913 17.2944C124.161 17.5286 124.285 17.8212 124.285 18.1724C124.285 18.5382 124.161 18.842 123.913 19.0835C123.665 19.325 123.365 19.4458 123.015 19.4458C122.65 19.4457 122.347 19.325 122.106 19.0835C121.865 18.842 121.745 18.5383 121.745 18.1724C121.745 17.8211 121.865 17.5286 122.106 17.2944C122.347 17.0603 122.65 16.9429 123.015 16.9429Z" fill="white"/>
<g clipPath="url(#clip0_1_1253)">
<path d="M44.7953 33.8696C46.2676 33.8696 49.0712 31.9314 51.9613 32.2212C53.1706 32.2548 56.6123 32.6762 58.8324 35.7612C58.6532 35.8635 54.7323 38.0593 54.7748 42.5728C54.8234 47.9806 59.7366 49.7696 59.8002 49.7905C59.7709 49.9165 59.03 52.3721 57.1859 54.8647C55.6463 57.059 54.0332 59.2042 51.4711 59.2437C48.9822 59.2983 48.1442 57.8472 45.2895 57.8472C42.4081 57.8472 41.5159 59.2045 39.1283 59.2983C36.688 59.3837 34.8235 56.9554 33.2279 54.7808C30.038 50.34 27.5547 42.2658 30.8842 36.772C32.4975 34.0778 35.4392 32.3426 38.5834 32.2964C41.0267 32.2488 43.2937 33.8695 44.7953 33.8696ZM51.2924 22.0259C51.5105 24.1958 50.7245 26.3341 49.5756 27.9058C48.3766 29.453 46.4583 30.6363 44.5902 30.4839C44.3457 28.396 45.2925 26.1753 46.352 24.8208C47.5496 23.2837 49.6295 22.1064 51.2924 22.0259Z" fill="white"/>
</g>
<defs>
<clipPath id="clip0_1_1253">
<rect width="40.663" height="40.663" fill="white" transform="translate(24.2201 22.0259)"/>
</clipPath>
</defs>
</svg>
