<svg width="272" height="85" viewBox="0 0 272 85" fill="none" xmlns="http://www.w3.org/2000/svg">
<rect x="0.414062" width="271.087" height="84.7146" rx="13.5543" fill="#1F2148"/>
<path d="M139.999 51.4451C140.806 51.4451 141.555 51.5603 142.246 51.7908H147.574V53.8074L145.04 53.9509C145.501 54.7381 145.732 55.6121 145.732 56.572C145.732 57.5321 145.505 58.3967 145.054 59.1648C144.603 59.9327 143.95 60.5478 143.096 61.0085C142.241 61.4694 141.209 61.699 139.999 61.699C139.25 61.699 138.559 61.6129 137.926 61.4402L136.687 62.6501C136.898 62.7846 137.158 62.8998 137.465 62.9958C137.772 63.0918 138.204 63.1779 138.761 63.2546C139.318 63.3314 140.076 63.4083 141.036 63.4851C142.937 63.6579 144.311 64.114 145.155 64.8533C146 65.5925 146.422 66.5767 146.422 67.8054C146.422 68.6503 146.196 69.4522 145.745 70.2107C145.294 70.9691 144.593 71.584 143.643 72.0544C142.692 72.5248 141.478 72.7595 139.999 72.7595C138.002 72.7595 136.384 72.3803 135.146 71.6218C133.907 70.8634 133.288 69.7162 133.288 68.1804C133.288 67.5852 133.447 66.9946 133.764 66.4089C134.081 65.8233 134.584 65.2711 135.276 64.7527C134.872 64.58 134.522 64.3927 134.225 64.1912C133.927 63.9895 133.663 63.7823 133.433 63.571V62.8806L135.909 60.3455C134.796 59.3854 134.238 58.1273 134.238 56.572C134.238 55.6315 134.464 54.7723 134.915 53.9949C135.366 53.2172 136.025 52.5973 136.889 52.1365C137.753 51.6757 138.79 51.4451 139.999 51.4451ZM222.764 62.3621L227.343 51.7917H230.568L221.352 72.4138H218.126L221.554 64.8962H220.718L215.073 51.7917H218.385L222.764 62.3621ZM137.926 65.4724C137.254 65.8372 136.793 66.2307 136.543 66.6531C136.293 67.0755 136.169 67.4891 136.169 67.8923C136.169 68.7179 136.534 69.337 137.264 69.7498C137.993 70.1625 138.906 70.3689 140 70.3689C141.056 70.3688 141.911 70.1433 142.564 69.6921C143.216 69.241 143.542 68.6409 143.542 67.8923C143.542 67.3355 143.322 66.8602 142.88 66.4666C142.438 66.0729 141.603 65.8282 140.374 65.7322C139.452 65.6746 138.636 65.5876 137.926 65.4724ZM89.6134 45.5701C91.9176 45.5701 93.838 46.1263 95.3741 47.24C96.9102 48.3536 97.9084 49.89 98.3693 51.8484H94.9132C94.606 50.7733 94.0011 49.9286 93.0988 49.3142C92.1963 48.6997 91.0343 48.3923 89.6134 48.3923C87.5014 48.3924 85.8407 49.0741 84.631 50.4373C83.4213 51.8006 82.8156 53.6825 82.8156 56.0828C82.8156 58.4828 83.4113 60.3549 84.6017 61.699C85.7922 63.0431 87.3768 63.7156 89.3546 63.7156C91.3515 63.7155 92.8544 63.1492 93.8624 62.0164C94.8705 60.8835 95.4601 59.3756 95.6329 57.4939H90.1613V55.1326H98.715V66.0769H95.921L95.6622 63.1111C94.9902 64.1671 94.1447 64.9833 93.1271 65.5593C92.1094 66.1352 90.7844 66.4226 89.1525 66.4226C87.2516 66.4226 85.5909 65.9907 84.17 65.1267C82.7491 64.2626 81.6448 63.0531 80.8575 61.4978C80.0703 59.9424 79.6769 58.1273 79.6769 56.0535C79.6769 53.9991 80.0795 52.1845 80.8859 50.6101C81.6923 49.0355 82.8401 47.8018 84.3282 46.9089C85.8164 46.0161 87.5781 45.5701 89.6134 45.5701ZM108.387 51.4451C109.75 51.4451 110.974 51.7576 112.059 52.3816C113.144 53.0057 114.008 53.8794 114.651 55.0027C115.295 56.126 115.616 57.4366 115.616 58.9343C115.616 60.432 115.295 61.7427 114.651 62.866C114.008 63.9892 113.139 64.863 112.045 65.4871C110.951 66.1111 109.721 66.4226 108.358 66.4226C106.994 66.4226 105.77 66.111 104.686 65.4871C103.601 64.863 102.741 63.9893 102.108 62.866C101.474 61.7427 101.157 60.432 101.157 58.9343C101.157 57.4366 101.479 56.126 102.122 55.0027C102.765 53.8794 103.634 53.0056 104.729 52.3816C105.823 51.7575 107.043 51.4451 108.387 51.4451ZM124.999 51.4451C126.362 51.4451 127.587 51.7575 128.672 52.3816C129.757 53.0056 130.621 53.8795 131.264 55.0027C131.907 56.126 132.229 57.4366 132.229 58.9343C132.229 60.432 131.907 61.7427 131.264 62.866C130.621 63.9892 129.752 64.863 128.657 65.4871C127.563 66.1111 126.334 66.4226 124.971 66.4226C123.607 66.4226 122.383 66.1111 121.298 65.4871C120.213 64.8631 119.354 63.9891 118.721 62.866C118.087 61.7427 117.77 60.432 117.77 58.9343C117.77 57.4366 118.091 56.126 118.734 55.0027C119.378 53.8794 120.247 53.0057 121.342 52.3816C122.436 51.7577 123.655 51.4451 124.999 51.4451ZM162.654 51.4451C164.056 51.4451 165.276 51.7575 166.313 52.3816C167.349 53.0056 168.156 53.8361 168.732 54.8728C169.308 55.9097 169.596 57.0524 169.596 58.3005C169.596 58.4925 169.591 58.6989 169.581 58.9197C169.572 59.1404 169.557 59.3853 169.538 59.6541H158.42C158.516 61.0365 158.972 62.0883 159.788 62.8083C160.604 63.5284 161.551 63.8884 162.626 63.8884C163.49 63.8884 164.214 63.6911 164.8 63.2976C165.386 62.904 165.822 62.371 166.11 61.699H169.164C168.78 63.0431 168.017 64.1666 166.874 65.0691C165.732 65.9715 164.316 66.4225 162.626 66.4226C161.224 66.4226 159.981 66.1111 158.896 65.4871C157.811 64.8631 156.961 63.9942 156.347 62.8806C155.732 61.7669 155.425 60.4705 155.425 58.9919C155.425 57.4942 155.727 56.1786 156.332 55.0457C156.937 53.9128 157.782 53.0299 158.867 52.3962C159.952 51.7627 161.214 51.4451 162.654 51.4451ZM207.705 51.4451C209.702 51.4451 211.248 51.9689 212.343 53.0154C213.437 54.0619 213.984 55.4878 213.984 57.2927V66.0769H211.335L211.075 63.6287C210.672 64.4159 210.087 65.0793 209.318 65.6169C208.55 66.1545 207.542 66.4226 206.294 66.4226C205.084 66.4226 204.086 66.2213 203.299 65.8181C202.512 65.4149 201.926 64.8819 201.542 64.2195C201.158 63.557 200.966 62.832 200.966 62.0447C200.966 60.6624 201.503 59.5679 202.578 58.7615C203.653 57.955 205.19 57.5516 207.187 57.5515H210.932V57.2927C210.932 56.1792 210.629 55.3437 210.025 54.7869C209.42 54.23 208.637 53.951 207.677 53.9509C206.832 53.9509 206.097 54.1582 205.473 54.571C204.849 54.9838 204.47 55.5931 204.335 56.3992H201.282C201.378 55.3624 201.729 54.4743 202.334 53.7351C202.939 52.996 203.707 52.4295 204.638 52.0359C205.569 51.6423 206.592 51.4451 207.705 51.4451ZM185.914 45.9158C187.489 45.9158 188.795 46.1797 189.832 46.7078C190.869 47.2358 191.642 47.9559 192.151 48.8679C192.659 49.7799 192.914 50.8117 192.914 51.9636C192.914 53.0581 192.668 54.0623 192.179 54.9744C191.689 55.8861 190.926 56.6107 189.89 57.1482C188.853 57.6858 187.527 57.9548 185.914 57.9548H181.911V66.0779H178.858V45.9158H185.914ZM152.724 66.0769H149.671V45.3396H152.724V66.0769ZM198.235 45.3396V66.0769H195.183V45.3396H198.235ZM207.504 59.6257C206.294 59.6257 205.435 59.8362 204.926 60.2585C204.417 60.681 204.162 61.2098 204.162 61.8435C204.162 62.4962 204.408 63.0102 204.898 63.3845C205.387 63.7587 206.054 63.946 206.899 63.946C207.724 63.946 208.421 63.7489 208.987 63.3552C209.554 62.9617 209.995 62.4385 210.312 61.7859C210.628 61.1331 210.826 60.4129 210.902 59.6257H207.504ZM108.387 54.0662C107.657 54.0662 106.98 54.2492 106.356 54.614C105.732 54.9788 105.228 55.5211 104.844 56.241C104.46 56.961 104.268 57.859 104.268 58.9343C104.268 60.0094 104.46 60.9067 104.844 61.6267C105.228 62.3468 105.727 62.8898 106.342 63.2546C106.956 63.6193 107.628 63.8015 108.358 63.8015C109.087 63.8015 109.765 63.6195 110.389 63.2546C111.013 62.8898 111.517 62.3467 111.901 61.6267C112.284 60.9068 112.477 60.0093 112.477 58.9343C112.477 57.8591 112.29 56.961 111.915 56.241C111.541 55.521 111.041 54.9789 110.417 54.614C109.793 54.2492 109.116 54.0662 108.387 54.0662ZM124.999 54.0662C124.27 54.0662 123.593 54.2492 122.969 54.614C122.345 54.9789 121.84 55.5209 121.456 56.241C121.072 56.961 120.881 57.8591 120.881 58.9343C120.881 60.0093 121.072 60.9068 121.456 61.6267C121.84 62.3468 122.34 62.8898 122.954 63.2546C123.569 63.6195 124.241 63.8015 124.971 63.8015C125.7 63.8015 126.377 63.6194 127.001 63.2546C127.625 62.8898 128.13 62.3468 128.514 61.6267C128.898 60.9068 129.089 60.0093 129.089 58.9343C129.089 57.859 128.902 56.961 128.527 56.241C128.153 55.5211 127.654 54.9788 127.03 54.614C126.406 54.2492 125.729 54.0662 124.999 54.0662ZM139.999 53.8943C139.097 53.8944 138.372 54.1242 137.825 54.5847C137.278 55.0456 137.004 55.718 137.004 56.6013C137.004 57.4654 137.278 58.1328 137.825 58.6033C138.372 59.0735 139.097 59.3083 139.999 59.3083C140.882 59.3083 141.598 59.0737 142.146 58.6033C142.693 58.1328 142.966 57.4654 142.966 56.6013C142.966 55.718 142.693 55.0456 142.146 54.5847C141.598 54.1239 140.882 53.8943 139.999 53.8943ZM162.626 53.9509C161.608 53.9509 160.705 54.2534 159.918 54.8582C159.131 55.463 158.65 56.3711 158.478 57.5808H166.543C166.485 56.4671 166.091 55.5833 165.361 54.9304C164.632 54.2779 163.72 53.951 162.626 53.9509ZM181.911 55.449H185.771C187.211 55.449 188.243 55.1375 188.867 54.5134C189.491 53.8894 189.803 53.0389 189.803 51.9636C189.803 50.8502 189.491 49.9812 188.867 49.3572C188.243 48.7331 187.211 48.4216 185.771 48.4216H181.911V55.449ZM86.8751 16.5085C88.6077 16.5085 90.0506 16.9276 91.2032 17.7644C92.3559 18.6014 93.1018 19.754 93.4396 21.2224H91.3029C91.0973 20.2974 90.6088 19.5635 89.838 19.0203C89.0671 18.477 88.0792 18.2048 86.8751 18.2048C85.7447 18.2049 84.7608 18.4581 83.924 18.9646C83.087 19.4712 82.4373 20.1948 81.9747 21.1345C81.5122 22.0743 81.2814 23.1978 81.2814 24.5046C81.2814 25.8114 81.5088 26.9351 81.964 27.8748C82.4192 28.8143 83.051 29.5372 83.8585 30.0437C84.6661 30.5502 85.6061 30.8035 86.6779 30.8035C88.3221 30.8034 89.5626 30.3227 90.3995 29.3611C91.2365 28.3993 91.7137 27.0809 91.8312 25.407H87.382V23.9539H93.7257V32.1912H92.0294L91.8751 29.658C91.3171 30.5537 90.6349 31.2447 89.8273 31.7292C89.0197 32.2138 87.9476 32.4558 86.6115 32.4558C85.1724 32.4558 83.909 32.122 82.8224 31.4539C81.7359 30.7857 80.8922 29.8527 80.2902 28.656C79.6882 27.4594 79.3869 26.0757 79.3868 24.5046C79.3868 22.9335 79.6915 21.5456 80.3009 20.3416C80.9102 19.1376 81.7764 18.1977 82.8995 17.5222C84.0227 16.8468 85.3482 16.5086 86.8751 16.5085ZM101.012 21.0027C102.069 21.0028 102.983 21.2413 103.754 21.7185C104.525 22.1957 105.115 22.8233 105.526 23.6013C105.938 24.3795 106.144 25.2165 106.144 26.1121C106.144 26.2736 106.139 26.4359 106.132 26.5974C106.125 26.7587 106.121 26.942 106.121 27.1472H97.421C97.4651 27.9842 97.6599 28.6786 98.005 29.2292C98.3501 29.7798 98.7836 30.1944 99.3048 30.4734C99.8259 30.7522 100.38 30.8923 100.967 30.8923C101.73 30.8923 102.37 30.7154 102.884 30.363C103.398 30.0106 103.772 29.5333 104.007 28.9314H105.835C105.541 29.9445 104.98 30.7858 104.151 31.4539C103.321 32.122 102.259 32.4558 100.967 32.4558C99.9247 32.4557 98.9999 32.217 98.1925 31.74C97.385 31.2628 96.7498 30.5983 96.2872 29.7468C95.8247 28.8952 95.5929 27.8892 95.5929 26.7292C95.5929 25.5839 95.8203 24.5814 96.2755 23.7224C96.7306 22.8635 97.366 22.1957 98.1808 21.7185C98.9957 21.2413 99.9399 21.0027 101.012 21.0027ZM144.285 21.0027C145.313 21.0028 146.238 21.2372 147.06 21.7068C147.882 22.1767 148.532 22.8419 149.009 23.7009C149.486 24.5599 149.725 25.5693 149.725 26.7292C149.725 27.8892 149.483 28.8986 148.998 29.7576C148.514 30.6164 147.857 31.2809 147.027 31.7507C146.198 32.2206 145.268 32.4558 144.24 32.4558C143.213 32.4558 142.288 32.2205 141.466 31.7507C140.644 31.2808 139.993 30.6166 139.516 29.7576C139.039 28.8987 138.8 27.8891 138.8 26.7292C138.8 25.5693 139.043 24.5599 139.527 23.7009C140.012 22.842 140.669 22.1767 141.498 21.7068C142.328 21.2369 143.257 21.0027 144.285 21.0027ZM110.676 21.2664H113.892V22.8308H110.676V28.8435C110.676 29.5333 110.815 29.9996 111.094 30.2419C111.373 30.4842 111.866 30.6052 112.57 30.6052H113.715V32.1912H112.041C111.043 32.1911 110.257 31.9491 109.685 31.4646C109.112 30.98 108.825 30.1063 108.825 28.8435V22.8308H106.932V21.2664H108.825L109.068 18.6453H110.676V21.2664ZM123.154 32.1912H121.305V21.2664H123.154V32.1912ZM128.832 18.6453V21.2664H132.048V22.8308H128.832V28.8435C128.832 29.5336 128.972 29.9997 129.251 30.2419C129.53 30.4842 130.022 30.6052 130.727 30.6052H131.872V32.1912H130.198C129.2 32.1912 128.414 31.9492 127.841 31.4646C127.268 30.98 126.983 30.1062 126.983 28.8435V22.8308H125.088V21.2664H126.983L127.225 18.6453H128.832ZM157.363 21.0027C158.655 21.0028 159.686 21.3952 160.457 22.1804C161.228 22.966 161.614 24.1745 161.614 25.8044V32.1912H159.764V26.0027C159.764 23.7267 158.824 22.5886 156.944 22.5886C156.005 22.5886 155.223 22.9294 154.599 23.6121C153.975 24.2949 153.662 25.2682 153.662 26.531V32.1912H151.813V21.2664H153.486L153.597 23.2273C153.949 22.5372 154.456 21.9939 155.116 21.5974C155.777 21.2009 156.526 21.0027 157.363 21.0027ZM144.284 22.5876C143.653 22.5877 143.066 22.7422 142.523 23.0505C141.979 23.3589 141.539 23.8215 141.201 24.4382C140.864 25.0548 140.695 25.8181 140.694 26.7283C140.694 27.6387 140.864 28.4026 141.201 29.0193C141.539 29.636 141.976 30.0986 142.512 30.407C143.048 30.7152 143.624 30.8698 144.24 30.8699C144.872 30.8699 145.46 30.7153 146.003 30.407C146.546 30.0986 146.987 29.6359 147.324 29.0193C147.662 28.4026 147.831 27.6386 147.831 26.7283C147.831 25.8181 147.665 25.0548 147.335 24.4382C147.005 23.8215 146.568 23.3589 146.025 23.0505C145.481 22.7422 144.901 22.5876 144.284 22.5876ZM100.968 22.5662C100.087 22.5662 99.304 22.8339 98.6212 23.3699C97.9386 23.9058 97.5463 24.6879 97.4435 25.7156H104.316C104.271 24.7318 103.933 23.961 103.302 23.4031C102.671 22.8452 101.893 22.5663 100.968 22.5662ZM122.23 16.3328C122.582 16.3328 122.883 16.4504 123.133 16.6853C123.382 16.9202 123.507 17.2139 123.507 17.5662C123.507 17.9331 123.382 18.238 123.133 18.4802C122.883 18.7225 122.582 18.8435 122.23 18.8435C121.863 18.8435 121.558 18.7225 121.316 18.4802C121.073 18.2379 120.952 17.9333 120.952 17.5662C120.952 17.2138 121.073 16.9202 121.316 16.6853C121.558 16.4504 121.863 16.3328 122.23 16.3328Z" fill="white"/>
<g clipPath="url(#clip0_1_1254)">
<path fill-rule="evenodd" clip-rule="evenodd" d="M30.0032 25.6158L46.0127 42.3822L30.08 59.2949C29.6151 58.9857 29.3658 58.3145 29.3616 57.4474C29.3536 55.7857 29.2268 29.4085 29.2172 27.4294C29.2128 26.4802 29.542 25.9009 30.0032 25.6158ZM51.2923 36.7782L31.8245 25.6384C31.6166 25.5192 31.3804 25.4467 31.1452 25.4143L46.6751 41.6791L51.2923 36.7782ZM52.1573 47.4206L47.3414 42.3773L52.1524 37.2706L58.7777 41.061C60.4098 41.9944 59.575 43.1622 58.7777 43.62L52.1573 47.4206ZM31.4 59.3003C31.5357 59.2468 31.6774 59.1784 31.8245 59.0941L51.2963 47.9153L46.6799 43.0807L31.4 59.3003Z" fill="white"/>
</g>
<defs>
<clipPath id="clip0_1_1254">
<rect width="40.663" height="40.663" fill="white" transform="translate(24.1342 22.0259)"/>
</clipPath>
</defs>
</svg>
