<svg width="121" height="40" viewBox="0 0 121 40" fill="none" xmlns="http://www.w3.org/2000/svg">
<g clipPath="url(#clip0_1_732)">
<path d="M1.56323 27.4156C4.42004 26.5818 7.2829 25.7455 10.1409 24.9043C12.7896 24.1293 15.4431 23.3677 18.0785 22.5584C19.5305 22.1103 20.5348 22.5229 21.354 23.8281C23.9894 28.0449 26.6865 32.2177 29.3521 36.4162C29.5009 36.6525 29.6038 36.9304 29.7224 37.1729C20.4828 43.6867 4.88105 38.3275 1.56323 27.4156Z" fill="#1D5BD6"/>
<path d="M0.159682 23.1326C-0.611088 15.7838 1.39751 9.8797 6.42385 5.21595C11.8108 0.220385 18.2008 -1.0383 25.75 0.806874C17.1481 8.31369 8.84506 15.5597 0.159682 23.1326Z" fill="#1D5BD6"/>
<path d="M33.6646 34.0506C31.9912 23.2906 30.3661 12.8317 28.7157 2.23331C40.6874 8.08962 43.2938 24.8088 33.6646 34.0506Z" fill="#1D5BD6"/>
<path d="M61.2356 15.141V15.6564H57.026L54.4898 12.5232L51.9476 15.6564H47.738V15.141L52.0735 10.1931L47.801 5.29064V4.79353H51.9876L54.4862 7.86311L56.9643 4.79353H61.1049V5.29064L56.8772 10.1931L61.2356 15.141Z" fill="#1D5BD6"/>
<path d="M75.9722 12.4154V15.6552H73.9019C72.6375 15.6552 71.7191 15.2671 71.1455 14.4896C70.5926 14.9475 69.9247 15.3038 69.1515 15.5597C68.3783 15.8156 67.5155 15.9356 66.5778 15.9356C65.1125 15.9356 63.9666 15.643 63.1426 15.0626C62.3186 14.4773 61.9036 13.6619 61.9036 12.6113C61.9036 11.7322 62.2121 11.0331 62.822 10.5029C63.4318 9.97275 64.332 9.65073 65.5154 9.5234L70.5551 8.96384C70.4679 8.51816 70.2284 8.18635 69.8315 7.97085C69.4346 7.75536 68.8683 7.64639 68.1447 7.64639C67.3643 7.64639 66.7532 7.74189 66.3322 7.93902C65.9038 8.13615 65.6909 8.41041 65.6909 8.77284V8.83651H61.9979V8.77284C61.9979 7.90719 62.2496 7.1554 62.753 6.51259C63.2563 5.86856 63.9799 5.37879 64.9104 5.03474C65.8421 4.69068 66.936 4.51926 68.1883 4.51926C70.0953 4.51926 71.5872 4.9527 72.6496 5.81836C73.7132 6.68401 74.254 7.8876 74.254 9.42789V11.7665C74.254 12.2122 74.5178 12.435 75.0466 12.435H75.9722V12.4154ZM69.1079 12.8489C69.7553 12.6199 70.2526 12.3199 70.5938 11.9649V11.1874L66.5609 11.6649C65.8748 11.753 65.5348 12.0089 65.5348 12.4424C65.5348 12.9456 66.0381 13.2003 67.0509 13.2003C67.7745 13.1991 68.4593 13.0852 69.1079 12.8489Z" fill="#1D5BD6"/>
<path d="M78.42 14.7712C77.7472 14.1798 77.4072 13.3631 77.4072 12.3322V0.617096H81.0384V11.6588C81.0384 11.933 81.1074 12.1302 81.2405 12.244C81.3724 12.3579 81.5926 12.4167 81.8951 12.4167H82.8135V15.6564H81.2345C80.0305 15.6564 79.094 15.3638 78.42 14.7712Z" fill="#1D5BD6"/>
<path d="M96.7055 4.78863V19.3309H93.0755V14.9622C92.1498 15.6111 91.0366 15.9368 89.7468 15.9368C88.5198 15.9368 87.4562 15.7005 86.5451 15.2365C85.6328 14.7712 84.9273 14.11 84.43 13.2566C83.9327 12.4093 83.681 11.4224 83.681 10.296V10.0989C83.681 8.99078 83.9267 8.01004 84.4179 7.15785C84.9092 6.31057 85.6146 5.65429 86.533 5.19024C87.4514 4.73231 88.521 4.496 89.748 4.496C91.1007 4.496 92.2648 4.87924 93.2521 5.64327L93.3393 4.77761H96.7055V4.78863ZM91.9114 12.3077C92.4027 12.135 92.7923 11.9 93.0767 11.5939V8.80467C92.7935 8.51816 92.4039 8.2892 91.9114 8.12391C91.4202 7.95861 90.8854 7.87535 90.3009 7.87535C89.3886 7.87535 88.6832 8.07248 88.1859 8.46062C87.6885 8.84875 87.4369 9.39728 87.4369 10.1038V10.3009C87.4369 11.0196 87.6885 11.5804 88.1919 11.9759C88.6953 12.3701 89.3995 12.5673 90.2937 12.5673C90.8854 12.5685 91.419 12.4865 91.9114 12.3077Z" fill="#1D5BD6"/>
<path d="M61.1945 25.1676V34.6775C61.1945 36.4639 60.6525 37.7973 59.5707 38.6764C58.489 39.5555 56.8579 39.9951 54.6787 39.9951C52.6568 39.9804 51.0789 39.6021 49.9476 38.8601C48.815 38.1169 48.2488 37.0847 48.2488 35.7587V35.6301H51.9647V35.7599C51.9647 36.0758 52.2212 36.3439 52.7342 36.5594C53.2473 36.7749 53.8886 36.8839 54.6569 36.8839C55.6104 36.8839 56.3352 36.7113 56.8252 36.3648C57.3165 36.0195 57.5621 35.5077 57.5621 34.8306V34.4204C56.6365 35.0106 55.5184 35.3069 54.208 35.3069C52.2563 35.3069 50.7607 34.8747 49.7225 34.0102C48.6843 33.1458 48.1628 31.9055 48.1628 30.2917V30.1191C48.1628 28.4759 48.6965 27.194 49.7649 26.2708C50.8333 25.3488 52.3144 24.8872 54.208 24.8872C55.6322 24.8872 56.8071 25.2325 57.7327 25.9255L57.8174 25.1688H61.1945V25.1676ZM56.3993 31.9985C56.8906 31.8259 57.279 31.5945 57.5645 31.3067V29.1016C57.2657 28.7857 56.87 28.5359 56.3787 28.3559C55.8875 28.176 55.3502 28.0853 54.767 28.0853C52.8734 28.0853 51.9259 28.7637 51.9259 30.1166V30.2893C51.9259 30.9676 52.1571 31.4635 52.6205 31.7806C53.0839 32.0965 53.7978 32.2557 54.7682 32.2557C55.3636 32.2581 55.9068 32.1712 56.3993 31.9985Z" fill="#1D5BD6"/>
<path d="M64.879 35.155C64.2026 34.5649 63.865 33.7507 63.865 32.7124V20.9973H67.4962V32.0426C67.4962 32.3169 67.5628 32.5116 67.6995 32.6266C67.8338 32.7417 68.0516 32.8005 68.3517 32.8005H69.2701V36.0427H67.6898C66.4919 36.0415 65.5554 35.7452 64.879 35.155Z" fill="#1D5BD6"/>
<path d="M73.2413 35.6411C72.2442 35.1869 71.4783 34.5416 70.9447 33.7066C70.4111 32.8715 70.1437 31.8847 70.1437 30.746V30.5072C70.1437 29.3538 70.4062 28.3572 70.9338 27.5136C71.4614 26.6699 72.2225 26.0222 73.2195 25.568C74.2165 25.1137 75.4048 24.8872 76.7866 24.8872C78.852 24.8872 80.4638 25.388 81.6242 26.3883C82.7845 27.3911 83.3641 28.7624 83.3641 30.5072V30.746C83.3641 32.4748 82.7833 33.8364 81.6242 34.8306C80.4638 35.8248 78.8508 36.3219 76.7866 36.3219C75.4205 36.3219 74.2383 36.0954 73.2413 35.6411ZM78.8702 32.3977C79.3615 32.0169 79.6071 31.4574 79.6071 30.7227V30.5488C79.6071 29.7995 79.3615 29.2277 78.8702 28.8298C78.3789 28.4343 77.6783 28.2347 76.766 28.2347C75.8404 28.2347 75.1313 28.4294 74.6412 28.8188C74.15 29.2081 73.9044 29.7836 73.9044 30.5476V30.7215C73.9044 31.4561 74.1524 32.0157 74.6521 32.3965C75.1507 32.7773 75.8549 32.9683 76.7672 32.9683C77.6771 32.9719 78.3789 32.7809 78.8702 32.3977Z" fill="#1D5BD6"/>
<path d="M95.7243 25.579C96.6282 26.0394 97.3227 26.6932 97.8067 27.5344C98.2907 28.378 98.5327 29.3599 98.5327 30.4852V30.6798C98.5327 31.8039 98.2907 32.7907 97.8067 33.6405C97.3227 34.4902 96.6245 35.1501 95.7134 35.6179C94.8023 36.0868 93.7411 36.3207 92.5311 36.3207C91.1069 36.3207 89.9175 35.946 88.964 35.1967L88.8793 36.0403H85.5046V20.9973H89.1358V25.9035C90.0893 25.2264 91.2219 24.8872 92.5323 24.8872C93.7556 24.8872 94.8192 25.1174 95.7243 25.579ZM94.7732 30.4864C94.7732 29.7811 94.5228 29.2326 94.0255 28.8432C93.5281 28.4539 92.8215 28.2592 91.9104 28.2592C91.3126 28.2592 90.7706 28.3425 90.2866 28.5078C89.8026 28.6731 89.4178 28.9081 89.1334 29.2106V31.9557C89.419 32.2593 89.8062 32.5005 90.2987 32.6805C90.7899 32.8605 91.3272 32.9511 91.9104 32.9511C92.8082 32.9511 93.5088 32.754 94.0146 32.3561C94.5191 31.9606 94.772 31.401 94.772 30.6811L94.7732 30.4864Z" fill="#1D5BD6"/>
<path d="M114.34 32.7981V36.0403H112.269C111.001 36.0403 110.082 35.6509 109.512 34.8734C108.957 35.3338 108.291 35.6913 107.516 35.9436C106.74 36.1946 105.881 36.3219 104.942 36.3219C103.476 36.3219 102.329 36.0305 101.503 35.4464C100.678 34.8624 100.264 34.0457 100.264 32.9927C100.264 32.1136 100.57 31.412 101.183 30.8856C101.795 30.3591 102.692 30.0309 103.875 29.9011L108.916 29.3391C108.831 28.8934 108.589 28.5604 108.19 28.3449C107.79 28.1294 107.228 28.0204 106.502 28.0204C105.719 28.0204 105.114 28.1184 104.686 28.3119C104.258 28.5065 104.044 28.7833 104.044 29.1445V29.2093H100.349V29.1445C100.349 28.28 100.602 27.5258 101.108 26.8854C101.612 26.2451 102.332 25.7504 103.265 25.4051C104.198 25.0598 105.291 24.886 106.543 24.886C108.451 24.886 109.939 25.3194 111.008 26.1826C112.076 27.047 112.61 28.2506 112.61 29.7922V32.1271C112.61 32.5728 112.872 32.7968 113.4 32.7968L114.34 32.7981ZM107.472 33.2315C108.12 33.0013 108.614 32.7062 108.956 32.345V31.5663L104.919 32.0414C104.235 32.1271 103.893 32.3867 103.893 32.8201C103.893 33.3246 104.398 33.5768 105.409 33.5768C106.136 33.5768 106.824 33.4617 107.472 33.2315Z" fill="#1D5BD6"/>
<path d="M116.787 35.155C116.11 34.5649 115.773 33.7507 115.773 32.7124V20.9973H119.404V32.0426C119.404 32.3169 119.471 32.5116 119.607 32.6266C119.742 32.7417 119.959 32.8005 120.26 32.8005H121.178V36.0427H119.596C118.399 36.0415 117.462 35.7452 116.787 35.155Z" fill="#1D5BD6"/>
</g>
<defs>
<clipPath id="clip0_1_732">
<rect width="121" height="40" fill="white"/>
</clipPath>
</defs>
</svg>
